<mxfile host="Electron" modified="2025-02-10T19:05:03.190Z" agent="Mozilla/5.0 (X11; Linux x86_64) AppleWebKit/537.36 (KHTML, like Gecko) draw.io/21.3.7 Chrome/112.0.5615.204 Electron/24.5.0 Safari/537.36" etag="D0CX2pb98Y-sJP_tsWaA" version="21.3.7" type="device" pages="3">
  <diagram id="rF4m-xEq2YqLnFGwZLbP" name="example">
    <mxGraphModel dx="1034" dy="1745" grid="1" gridSize="10" guides="1" tooltips="1" connect="1" arrows="1" fold="1" page="1" pageScale="1" pageWidth="827" pageHeight="1169" math="0" shadow="0">
      <root>
        <mxCell id="0" />
        <mxCell id="1" parent="0" />
        <mxCell id="3S-YWk4yViKVi4xj6xPP-1" style="edgeStyle=orthogonalEdgeStyle;rounded=0;orthogonalLoop=1;jettySize=auto;html=1;startArrow=ERone;startFill=0;endArrow=ERmany;endFill=0;" parent="1" source="ViDyMzBDKaSlZ37jl4wo-89" target="ViDyMzBDKaSlZ37jl4wo-110" edge="1">
          <mxGeometry relative="1" as="geometry">
            <Array as="points">
              <mxPoint x="170" y="-905" />
              <mxPoint x="170" y="-905" />
            </Array>
            <mxPoint x="200" y="-855" as="sourcePoint" />
            <mxPoint x="200" y="-904.0000000000002" as="targetPoint" />
          </mxGeometry>
        </mxCell>
        <mxCell id="3S-YWk4yViKVi4xj6xPP-2" style="edgeStyle=orthogonalEdgeStyle;rounded=0;orthogonalLoop=1;jettySize=auto;html=1;startArrow=ERone;startFill=0;endArrow=ERmany;endFill=0;" parent="1" source="ViDyMzBDKaSlZ37jl4wo-96" target="ViDyMzBDKaSlZ37jl4wo-124" edge="1">
          <mxGeometry relative="1" as="geometry">
            <Array as="points">
              <mxPoint x="630" y="-905" />
              <mxPoint x="631" y="-905" />
            </Array>
            <mxPoint x="610" y="-905" as="sourcePoint" />
            <mxPoint x="580.21" y="-905" as="targetPoint" />
          </mxGeometry>
        </mxCell>
        <mxCell id="3S-YWk4yViKVi4xj6xPP-3" style="edgeStyle=orthogonalEdgeStyle;rounded=0;orthogonalLoop=1;jettySize=auto;html=1;startArrow=ERone;startFill=0;endArrow=ERmany;endFill=0;" parent="1" source="ViDyMzBDKaSlZ37jl4wo-1" target="ViDyMzBDKaSlZ37jl4wo-41" edge="1">
          <mxGeometry relative="1" as="geometry">
            <Array as="points">
              <mxPoint x="187" y="-555" />
              <mxPoint x="187" y="-555" />
            </Array>
            <mxPoint x="220" y="-585" as="sourcePoint" />
            <mxPoint x="200" y="-555" as="targetPoint" />
          </mxGeometry>
        </mxCell>
        <mxCell id="3S-YWk4yViKVi4xj6xPP-4" style="edgeStyle=orthogonalEdgeStyle;rounded=0;orthogonalLoop=1;jettySize=auto;html=1;startArrow=ERone;startFill=0;endArrow=ERmany;endFill=0;" parent="1" source="ViDyMzBDKaSlZ37jl4wo-19" target="ViDyMzBDKaSlZ37jl4wo-51" edge="1">
          <mxGeometry relative="1" as="geometry">
            <Array as="points">
              <mxPoint x="390" y="-555" />
              <mxPoint x="390" y="-555" />
            </Array>
            <mxPoint x="389.65999999999997" y="-612" as="sourcePoint" />
            <mxPoint x="389.84000000000003" y="-555" as="targetPoint" />
          </mxGeometry>
        </mxCell>
        <mxCell id="3S-YWk4yViKVi4xj6xPP-5" style="edgeStyle=orthogonalEdgeStyle;rounded=0;orthogonalLoop=1;jettySize=auto;html=1;startArrow=ERone;startFill=0;endArrow=ERmany;endFill=0;" parent="1" source="ViDyMzBDKaSlZ37jl4wo-26" target="ViDyMzBDKaSlZ37jl4wo-58" edge="1">
          <mxGeometry relative="1" as="geometry">
            <Array as="points">
              <mxPoint x="605" y="-565" />
              <mxPoint x="605" y="-565" />
            </Array>
            <mxPoint x="699.9999999999999" y="-565" as="sourcePoint" />
            <mxPoint x="700.18" y="-508" as="targetPoint" />
          </mxGeometry>
        </mxCell>
        <mxCell id="3S-YWk4yViKVi4xj6xPP-6" style="edgeStyle=orthogonalEdgeStyle;rounded=0;orthogonalLoop=1;jettySize=auto;html=1;startArrow=ERone;startFill=0;endArrow=ERmany;endFill=0;" parent="1" source="ViDyMzBDKaSlZ37jl4wo-33" target="ViDyMzBDKaSlZ37jl4wo-1" edge="1">
          <mxGeometry relative="1" as="geometry">
            <Array as="points">
              <mxPoint x="240" y="-745" />
            </Array>
            <mxPoint x="330" y="-735" as="sourcePoint" />
            <mxPoint x="200" y="-685" as="targetPoint" />
          </mxGeometry>
        </mxCell>
        <mxCell id="3S-YWk4yViKVi4xj6xPP-7" style="edgeStyle=orthogonalEdgeStyle;rounded=0;orthogonalLoop=1;jettySize=auto;html=1;startArrow=ERone;startFill=0;endArrow=ERmany;endFill=0;" parent="1" source="ViDyMzBDKaSlZ37jl4wo-33" target="ViDyMzBDKaSlZ37jl4wo-89" edge="1">
          <mxGeometry relative="1" as="geometry">
            <Array as="points">
              <mxPoint x="270" y="-775" />
              <mxPoint x="270" y="-775" />
            </Array>
            <mxPoint x="330" y="-755" as="sourcePoint" />
            <mxPoint x="200" y="-795" as="targetPoint" />
          </mxGeometry>
        </mxCell>
        <mxCell id="3S-YWk4yViKVi4xj6xPP-8" style="edgeStyle=orthogonalEdgeStyle;rounded=0;orthogonalLoop=1;jettySize=auto;html=1;startArrow=ERone;startFill=0;endArrow=ERmany;endFill=0;" parent="1" source="ViDyMzBDKaSlZ37jl4wo-33" target="ViDyMzBDKaSlZ37jl4wo-96" edge="1">
          <mxGeometry relative="1" as="geometry">
            <Array as="points">
              <mxPoint x="520" y="-775" />
              <mxPoint x="520" y="-775" />
            </Array>
            <mxPoint x="450" y="-755" as="sourcePoint" />
            <mxPoint x="580" y="-795" as="targetPoint" />
          </mxGeometry>
        </mxCell>
        <mxCell id="3S-YWk4yViKVi4xj6xPP-9" style="edgeStyle=orthogonalEdgeStyle;rounded=0;orthogonalLoop=1;jettySize=auto;html=1;startArrow=ERone;startFill=0;endArrow=ERmany;endFill=0;" parent="1" source="ViDyMzBDKaSlZ37jl4wo-33" target="ViDyMzBDKaSlZ37jl4wo-26" edge="1">
          <mxGeometry relative="1" as="geometry">
            <Array as="points">
              <mxPoint x="520" y="-745" />
            </Array>
            <mxPoint x="450" y="-735" as="sourcePoint" />
            <mxPoint x="580.0285714285715" y="-671" as="targetPoint" />
          </mxGeometry>
        </mxCell>
        <mxCell id="3S-YWk4yViKVi4xj6xPP-10" style="edgeStyle=orthogonalEdgeStyle;rounded=0;orthogonalLoop=1;jettySize=auto;html=1;startArrow=ERone;startFill=0;endArrow=ERmany;endFill=0;" parent="1" source="ViDyMzBDKaSlZ37jl4wo-33" target="ViDyMzBDKaSlZ37jl4wo-19" edge="1">
          <mxGeometry relative="1" as="geometry">
            <Array as="points" />
            <mxPoint x="389.84999999999997" y="-715" as="sourcePoint" />
            <mxPoint x="390" y="-671" as="targetPoint" />
          </mxGeometry>
        </mxCell>
        <mxCell id="3S-YWk4yViKVi4xj6xPP-19" style="edgeStyle=orthogonalEdgeStyle;rounded=0;orthogonalLoop=1;jettySize=auto;html=1;startArrow=ERone;startFill=0;endArrow=ERmany;endFill=0;" parent="1" source="ViDyMzBDKaSlZ37jl4wo-65" target="ViDyMzBDKaSlZ37jl4wo-41" edge="1">
          <mxGeometry relative="1" as="geometry">
            <Array as="points" />
            <mxPoint x="70.00000000000023" y="-445" as="sourcePoint" />
            <mxPoint x="70.00000000000023" y="-410" as="targetPoint" />
          </mxGeometry>
        </mxCell>
        <mxCell id="3S-YWk4yViKVi4xj6xPP-21" style="edgeStyle=orthogonalEdgeStyle;rounded=0;orthogonalLoop=1;jettySize=auto;html=1;startArrow=ERone;startFill=0;endArrow=ERmany;endFill=0;" parent="1" source="ViDyMzBDKaSlZ37jl4wo-117" target="ViDyMzBDKaSlZ37jl4wo-110" edge="1">
          <mxGeometry relative="1" as="geometry">
            <Array as="points" />
            <mxPoint x="200" y="-963" as="sourcePoint" />
            <mxPoint x="200.0526315789475" y="-1015" as="targetPoint" />
          </mxGeometry>
        </mxCell>
        <mxCell id="3S-YWk4yViKVi4xj6xPP-22" style="edgeStyle=orthogonalEdgeStyle;rounded=0;orthogonalLoop=1;jettySize=auto;html=1;startArrow=ERone;startFill=0;endArrow=ERmany;endFill=0;" parent="1" source="ViDyMzBDKaSlZ37jl4wo-131" target="ViDyMzBDKaSlZ37jl4wo-124" edge="1">
          <mxGeometry relative="1" as="geometry">
            <Array as="points" />
            <mxPoint x="580" y="-964" as="sourcePoint" />
            <mxPoint x="580.0526315789475" y="-1015" as="targetPoint" />
          </mxGeometry>
        </mxCell>
        <mxCell id="3S-YWk4yViKVi4xj6xPP-23" style="edgeStyle=orthogonalEdgeStyle;rounded=0;orthogonalLoop=1;jettySize=auto;html=1;startArrow=ERone;startFill=0;endArrow=ERmany;endFill=0;" parent="1" source="ViDyMzBDKaSlZ37jl4wo-103" target="ViDyMzBDKaSlZ37jl4wo-110" edge="1">
          <mxGeometry relative="1" as="geometry">
            <Array as="points">
              <mxPoint x="280" y="-915" />
              <mxPoint x="280" y="-915" />
            </Array>
            <mxPoint x="390" y="-907" as="sourcePoint" />
            <mxPoint x="260" y="-934.9473684210527" as="targetPoint" />
          </mxGeometry>
        </mxCell>
        <mxCell id="3S-YWk4yViKVi4xj6xPP-24" style="edgeStyle=orthogonalEdgeStyle;rounded=0;orthogonalLoop=1;jettySize=auto;html=1;startArrow=ERone;startFill=0;endArrow=ERmany;endFill=0;" parent="1" source="ViDyMzBDKaSlZ37jl4wo-103" target="ViDyMzBDKaSlZ37jl4wo-124" edge="1">
          <mxGeometry relative="1" as="geometry">
            <Array as="points">
              <mxPoint x="510" y="-915" />
              <mxPoint x="510" y="-915" />
            </Array>
            <mxPoint x="390" y="-907" as="sourcePoint" />
            <mxPoint x="520" y="-934.9473684210527" as="targetPoint" />
          </mxGeometry>
        </mxCell>
        <mxCell id="3S-YWk4yViKVi4xj6xPP-25" style="edgeStyle=orthogonalEdgeStyle;rounded=0;orthogonalLoop=1;jettySize=auto;html=1;startArrow=ERone;startFill=0;endArrow=ERmany;endFill=0;" parent="1" source="ViDyMzBDKaSlZ37jl4wo-103" target="ViDyMzBDKaSlZ37jl4wo-41" edge="1">
          <mxGeometry relative="1" as="geometry">
            <Array as="points">
              <mxPoint x="290" y="-915" />
              <mxPoint x="290" y="-524" />
            </Array>
            <mxPoint x="390" y="-907" as="sourcePoint" />
            <mxPoint x="280" y="-565" as="targetPoint" />
          </mxGeometry>
        </mxCell>
        <mxCell id="3S-YWk4yViKVi4xj6xPP-26" style="edgeStyle=orthogonalEdgeStyle;rounded=0;orthogonalLoop=1;jettySize=auto;html=1;startArrow=ERone;startFill=0;endArrow=ERmany;endFill=0;" parent="1" source="ViDyMzBDKaSlZ37jl4wo-103" target="ViDyMzBDKaSlZ37jl4wo-58" edge="1">
          <mxGeometry relative="1" as="geometry">
            <Array as="points">
              <mxPoint x="500" y="-915" />
              <mxPoint x="500" y="-525" />
            </Array>
            <mxPoint x="390" y="-907" as="sourcePoint" />
            <mxPoint x="510" y="-475" as="targetPoint" />
          </mxGeometry>
        </mxCell>
        <mxCell id="ViDyMzBDKaSlZ37jl4wo-1" value="dv1_links" style="shape=table;startSize=30;container=1;collapsible=1;childLayout=tableLayout;fixedRows=1;rowLines=0;fontStyle=1;align=center;resizeLast=1;" parent="1" vertex="1">
          <mxGeometry x="122" y="-686.5" width="130" height="102" as="geometry">
            <mxRectangle x="90" y="-326.5" width="80" height="30" as="alternateBounds" />
          </mxGeometry>
        </mxCell>
        <mxCell id="ViDyMzBDKaSlZ37jl4wo-2" value="" style="shape=tableRow;horizontal=0;startSize=0;swimlaneHead=0;swimlaneBody=0;fillColor=none;collapsible=0;dropTarget=0;points=[[0,0.5],[1,0.5]];portConstraint=eastwest;top=0;left=0;right=0;bottom=1;" parent="ViDyMzBDKaSlZ37jl4wo-1" vertex="1">
          <mxGeometry y="30" width="130" height="52" as="geometry" />
        </mxCell>
        <mxCell id="ViDyMzBDKaSlZ37jl4wo-3" value="PK" style="shape=partialRectangle;connectable=0;fillColor=none;top=0;left=0;bottom=0;right=0;fontStyle=1;overflow=hidden;" parent="ViDyMzBDKaSlZ37jl4wo-2" vertex="1">
          <mxGeometry width="30" height="52" as="geometry">
            <mxRectangle width="30" height="52" as="alternateBounds" />
          </mxGeometry>
        </mxCell>
        <mxCell id="ViDyMzBDKaSlZ37jl4wo-4" value="connector_id&#xa;schema_name&#xa;table_name" style="shape=partialRectangle;connectable=0;fillColor=none;top=0;left=0;bottom=0;right=0;align=left;spacingLeft=6;fontStyle=5;overflow=hidden;" parent="ViDyMzBDKaSlZ37jl4wo-2" vertex="1">
          <mxGeometry x="30" width="100" height="52" as="geometry">
            <mxRectangle width="100" height="52" as="alternateBounds" />
          </mxGeometry>
        </mxCell>
        <mxCell id="ViDyMzBDKaSlZ37jl4wo-5" value="" style="shape=tableRow;horizontal=0;startSize=0;swimlaneHead=0;swimlaneBody=0;fillColor=none;collapsible=0;dropTarget=0;points=[[0,0.5],[1,0.5]];portConstraint=eastwest;top=0;left=0;right=0;bottom=0;" parent="ViDyMzBDKaSlZ37jl4wo-1" vertex="1">
          <mxGeometry y="82" width="130" height="20" as="geometry" />
        </mxCell>
        <mxCell id="ViDyMzBDKaSlZ37jl4wo-6" value="" style="shape=partialRectangle;connectable=0;fillColor=none;top=0;left=0;bottom=0;right=0;editable=1;overflow=hidden;" parent="ViDyMzBDKaSlZ37jl4wo-5" vertex="1">
          <mxGeometry width="30" height="20" as="geometry">
            <mxRectangle width="30" height="20" as="alternateBounds" />
          </mxGeometry>
        </mxCell>
        <mxCell id="ViDyMzBDKaSlZ37jl4wo-7" value="..." style="shape=partialRectangle;connectable=0;fillColor=none;top=0;left=0;bottom=0;right=0;align=left;spacingLeft=6;overflow=hidden;" parent="ViDyMzBDKaSlZ37jl4wo-5" vertex="1">
          <mxGeometry x="30" width="100" height="20" as="geometry">
            <mxRectangle width="100" height="20" as="alternateBounds" />
          </mxGeometry>
        </mxCell>
        <mxCell id="ViDyMzBDKaSlZ37jl4wo-19" value="dv1_hubs" style="shape=table;startSize=30;container=1;collapsible=1;childLayout=tableLayout;fixedRows=1;rowLines=0;fontStyle=1;align=center;resizeLast=1;" parent="1" vertex="1">
          <mxGeometry x="325" y="-686.5" width="130" height="102" as="geometry">
            <mxRectangle x="90" y="-326.5" width="80" height="30" as="alternateBounds" />
          </mxGeometry>
        </mxCell>
        <mxCell id="ViDyMzBDKaSlZ37jl4wo-20" value="" style="shape=tableRow;horizontal=0;startSize=0;swimlaneHead=0;swimlaneBody=0;fillColor=none;collapsible=0;dropTarget=0;points=[[0,0.5],[1,0.5]];portConstraint=eastwest;top=0;left=0;right=0;bottom=1;" parent="ViDyMzBDKaSlZ37jl4wo-19" vertex="1">
          <mxGeometry y="30" width="130" height="52" as="geometry" />
        </mxCell>
        <mxCell id="ViDyMzBDKaSlZ37jl4wo-21" value="PK" style="shape=partialRectangle;connectable=0;fillColor=none;top=0;left=0;bottom=0;right=0;fontStyle=1;overflow=hidden;" parent="ViDyMzBDKaSlZ37jl4wo-20" vertex="1">
          <mxGeometry width="30" height="52" as="geometry">
            <mxRectangle width="30" height="52" as="alternateBounds" />
          </mxGeometry>
        </mxCell>
        <mxCell id="ViDyMzBDKaSlZ37jl4wo-22" value="connector_id&#xa;schema_name&#xa;table_name" style="shape=partialRectangle;connectable=0;fillColor=none;top=0;left=0;bottom=0;right=0;align=left;spacingLeft=6;fontStyle=5;overflow=hidden;" parent="ViDyMzBDKaSlZ37jl4wo-20" vertex="1">
          <mxGeometry x="30" width="100" height="52" as="geometry">
            <mxRectangle width="100" height="52" as="alternateBounds" />
          </mxGeometry>
        </mxCell>
        <mxCell id="ViDyMzBDKaSlZ37jl4wo-23" value="" style="shape=tableRow;horizontal=0;startSize=0;swimlaneHead=0;swimlaneBody=0;fillColor=none;collapsible=0;dropTarget=0;points=[[0,0.5],[1,0.5]];portConstraint=eastwest;top=0;left=0;right=0;bottom=0;" parent="ViDyMzBDKaSlZ37jl4wo-19" vertex="1">
          <mxGeometry y="82" width="130" height="20" as="geometry" />
        </mxCell>
        <mxCell id="ViDyMzBDKaSlZ37jl4wo-24" value="" style="shape=partialRectangle;connectable=0;fillColor=none;top=0;left=0;bottom=0;right=0;editable=1;overflow=hidden;" parent="ViDyMzBDKaSlZ37jl4wo-23" vertex="1">
          <mxGeometry width="30" height="20" as="geometry">
            <mxRectangle width="30" height="20" as="alternateBounds" />
          </mxGeometry>
        </mxCell>
        <mxCell id="ViDyMzBDKaSlZ37jl4wo-25" value="..." style="shape=partialRectangle;connectable=0;fillColor=none;top=0;left=0;bottom=0;right=0;align=left;spacingLeft=6;overflow=hidden;" parent="ViDyMzBDKaSlZ37jl4wo-23" vertex="1">
          <mxGeometry x="30" width="100" height="20" as="geometry">
            <mxRectangle width="100" height="20" as="alternateBounds" />
          </mxGeometry>
        </mxCell>
        <mxCell id="ViDyMzBDKaSlZ37jl4wo-26" value="dv1_satellites" style="shape=table;startSize=30;container=1;collapsible=1;childLayout=tableLayout;fixedRows=1;rowLines=0;fontStyle=1;align=center;resizeLast=1;" parent="1" vertex="1">
          <mxGeometry x="508" y="-686" width="152" height="102" as="geometry">
            <mxRectangle x="90" y="-326.5" width="80" height="30" as="alternateBounds" />
          </mxGeometry>
        </mxCell>
        <mxCell id="ViDyMzBDKaSlZ37jl4wo-27" value="" style="shape=tableRow;horizontal=0;startSize=0;swimlaneHead=0;swimlaneBody=0;fillColor=none;collapsible=0;dropTarget=0;points=[[0,0.5],[1,0.5]];portConstraint=eastwest;top=0;left=0;right=0;bottom=1;" parent="ViDyMzBDKaSlZ37jl4wo-26" vertex="1">
          <mxGeometry y="30" width="152" height="52" as="geometry" />
        </mxCell>
        <mxCell id="ViDyMzBDKaSlZ37jl4wo-28" value="PK" style="shape=partialRectangle;connectable=0;fillColor=none;top=0;left=0;bottom=0;right=0;fontStyle=1;overflow=hidden;" parent="ViDyMzBDKaSlZ37jl4wo-27" vertex="1">
          <mxGeometry width="30" height="52" as="geometry">
            <mxRectangle width="30" height="52" as="alternateBounds" />
          </mxGeometry>
        </mxCell>
        <mxCell id="ViDyMzBDKaSlZ37jl4wo-29" value="connector_id&#xa;schema_name&#xa;table_name" style="shape=partialRectangle;connectable=0;fillColor=none;top=0;left=0;bottom=0;right=0;align=left;spacingLeft=6;fontStyle=5;overflow=hidden;" parent="ViDyMzBDKaSlZ37jl4wo-27" vertex="1">
          <mxGeometry x="30" width="122" height="52" as="geometry">
            <mxRectangle width="122" height="52" as="alternateBounds" />
          </mxGeometry>
        </mxCell>
        <mxCell id="ViDyMzBDKaSlZ37jl4wo-30" value="" style="shape=tableRow;horizontal=0;startSize=0;swimlaneHead=0;swimlaneBody=0;fillColor=none;collapsible=0;dropTarget=0;points=[[0,0.5],[1,0.5]];portConstraint=eastwest;top=0;left=0;right=0;bottom=0;" parent="ViDyMzBDKaSlZ37jl4wo-26" vertex="1">
          <mxGeometry y="82" width="152" height="20" as="geometry" />
        </mxCell>
        <mxCell id="ViDyMzBDKaSlZ37jl4wo-31" value="" style="shape=partialRectangle;connectable=0;fillColor=none;top=0;left=0;bottom=0;right=0;editable=1;overflow=hidden;" parent="ViDyMzBDKaSlZ37jl4wo-30" vertex="1">
          <mxGeometry width="30" height="20" as="geometry">
            <mxRectangle width="30" height="20" as="alternateBounds" />
          </mxGeometry>
        </mxCell>
        <mxCell id="ViDyMzBDKaSlZ37jl4wo-32" value="satellite_type_cd (FK)" style="shape=partialRectangle;connectable=0;fillColor=none;top=0;left=0;bottom=0;right=0;align=left;spacingLeft=6;overflow=hidden;" parent="ViDyMzBDKaSlZ37jl4wo-30" vertex="1">
          <mxGeometry x="30" width="122" height="20" as="geometry">
            <mxRectangle width="122" height="20" as="alternateBounds" />
          </mxGeometry>
        </mxCell>
        <mxCell id="ViDyMzBDKaSlZ37jl4wo-33" value="dict_connectors" style="shape=table;startSize=30;container=1;collapsible=1;childLayout=tableLayout;fixedRows=1;rowLines=0;fontStyle=1;align=center;resizeLast=1;" parent="1" vertex="1">
          <mxGeometry x="325" y="-805" width="130" height="70" as="geometry">
            <mxRectangle x="90" y="-326.5" width="80" height="30" as="alternateBounds" />
          </mxGeometry>
        </mxCell>
        <mxCell id="ViDyMzBDKaSlZ37jl4wo-34" value="" style="shape=tableRow;horizontal=0;startSize=0;swimlaneHead=0;swimlaneBody=0;fillColor=none;collapsible=0;dropTarget=0;points=[[0,0.5],[1,0.5]];portConstraint=eastwest;top=0;left=0;right=0;bottom=1;" parent="ViDyMzBDKaSlZ37jl4wo-33" vertex="1">
          <mxGeometry y="30" width="130" height="20" as="geometry" />
        </mxCell>
        <mxCell id="ViDyMzBDKaSlZ37jl4wo-35" value="PK" style="shape=partialRectangle;connectable=0;fillColor=none;top=0;left=0;bottom=0;right=0;fontStyle=1;overflow=hidden;" parent="ViDyMzBDKaSlZ37jl4wo-34" vertex="1">
          <mxGeometry width="30" height="20" as="geometry">
            <mxRectangle width="30" height="20" as="alternateBounds" />
          </mxGeometry>
        </mxCell>
        <mxCell id="ViDyMzBDKaSlZ37jl4wo-36" value="connector_id" style="shape=partialRectangle;connectable=0;fillColor=none;top=0;left=0;bottom=0;right=0;align=left;spacingLeft=6;fontStyle=5;overflow=hidden;" parent="ViDyMzBDKaSlZ37jl4wo-34" vertex="1">
          <mxGeometry x="30" width="100" height="20" as="geometry">
            <mxRectangle width="100" height="20" as="alternateBounds" />
          </mxGeometry>
        </mxCell>
        <mxCell id="ViDyMzBDKaSlZ37jl4wo-37" value="" style="shape=tableRow;horizontal=0;startSize=0;swimlaneHead=0;swimlaneBody=0;fillColor=none;collapsible=0;dropTarget=0;points=[[0,0.5],[1,0.5]];portConstraint=eastwest;top=0;left=0;right=0;bottom=0;" parent="ViDyMzBDKaSlZ37jl4wo-33" vertex="1">
          <mxGeometry y="50" width="130" height="20" as="geometry" />
        </mxCell>
        <mxCell id="ViDyMzBDKaSlZ37jl4wo-38" value="" style="shape=partialRectangle;connectable=0;fillColor=none;top=0;left=0;bottom=0;right=0;editable=1;overflow=hidden;" parent="ViDyMzBDKaSlZ37jl4wo-37" vertex="1">
          <mxGeometry width="30" height="20" as="geometry">
            <mxRectangle width="30" height="20" as="alternateBounds" />
          </mxGeometry>
        </mxCell>
        <mxCell id="ViDyMzBDKaSlZ37jl4wo-39" value="..." style="shape=partialRectangle;connectable=0;fillColor=none;top=0;left=0;bottom=0;right=0;align=left;spacingLeft=6;overflow=hidden;" parent="ViDyMzBDKaSlZ37jl4wo-37" vertex="1">
          <mxGeometry x="30" width="100" height="20" as="geometry">
            <mxRectangle width="100" height="20" as="alternateBounds" />
          </mxGeometry>
        </mxCell>
        <mxCell id="ViDyMzBDKaSlZ37jl4wo-41" value="dv1_lnk_columns" style="shape=table;startSize=30;container=1;collapsible=1;childLayout=tableLayout;fixedRows=1;rowLines=0;fontStyle=1;align=center;resizeLast=1;" parent="1" vertex="1">
          <mxGeometry x="85" y="-550" width="182" height="135" as="geometry">
            <mxRectangle x="90" y="-326.5" width="80" height="30" as="alternateBounds" />
          </mxGeometry>
        </mxCell>
        <mxCell id="ViDyMzBDKaSlZ37jl4wo-42" value="" style="shape=tableRow;horizontal=0;startSize=0;swimlaneHead=0;swimlaneBody=0;fillColor=none;collapsible=0;dropTarget=0;points=[[0,0.5],[1,0.5]];portConstraint=eastwest;top=0;left=0;right=0;bottom=1;" parent="ViDyMzBDKaSlZ37jl4wo-41" vertex="1">
          <mxGeometry y="30" width="182" height="70" as="geometry" />
        </mxCell>
        <mxCell id="ViDyMzBDKaSlZ37jl4wo-43" value="PK" style="shape=partialRectangle;connectable=0;fillColor=none;top=0;left=0;bottom=0;right=0;fontStyle=1;overflow=hidden;" parent="ViDyMzBDKaSlZ37jl4wo-42" vertex="1">
          <mxGeometry width="30" height="70" as="geometry">
            <mxRectangle width="30" height="70" as="alternateBounds" />
          </mxGeometry>
        </mxCell>
        <mxCell id="ViDyMzBDKaSlZ37jl4wo-44" value="connector_id&#xa;schema_name&#xa;table_name&#xa;column_name" style="shape=partialRectangle;connectable=0;fillColor=none;top=0;left=0;bottom=0;right=0;align=left;spacingLeft=6;fontStyle=5;overflow=hidden;" parent="ViDyMzBDKaSlZ37jl4wo-42" vertex="1">
          <mxGeometry x="30" width="152" height="70" as="geometry">
            <mxRectangle width="152" height="70" as="alternateBounds" />
          </mxGeometry>
        </mxCell>
        <mxCell id="ViDyMzBDKaSlZ37jl4wo-45" value="" style="shape=tableRow;horizontal=0;startSize=0;swimlaneHead=0;swimlaneBody=0;fillColor=none;collapsible=0;dropTarget=0;points=[[0,0.5],[1,0.5]];portConstraint=eastwest;top=0;left=0;right=0;bottom=0;" parent="ViDyMzBDKaSlZ37jl4wo-41" vertex="1">
          <mxGeometry y="100" width="182" height="35" as="geometry" />
        </mxCell>
        <mxCell id="ViDyMzBDKaSlZ37jl4wo-46" value="" style="shape=partialRectangle;connectable=0;fillColor=none;top=0;left=0;bottom=0;right=0;editable=1;overflow=hidden;" parent="ViDyMzBDKaSlZ37jl4wo-45" vertex="1">
          <mxGeometry width="30" height="35" as="geometry">
            <mxRectangle width="30" height="35" as="alternateBounds" />
          </mxGeometry>
        </mxCell>
        <mxCell id="ViDyMzBDKaSlZ37jl4wo-47" value="lnk_column_type_cd (FK)&#xa;data_type_cd (FK)" style="shape=partialRectangle;connectable=0;fillColor=none;top=0;left=0;bottom=0;right=0;align=left;spacingLeft=6;overflow=hidden;" parent="ViDyMzBDKaSlZ37jl4wo-45" vertex="1">
          <mxGeometry x="30" width="152" height="35" as="geometry">
            <mxRectangle width="152" height="35" as="alternateBounds" />
          </mxGeometry>
        </mxCell>
        <mxCell id="ViDyMzBDKaSlZ37jl4wo-51" value="dv1_hub_columns" style="shape=table;startSize=30;container=1;collapsible=1;childLayout=tableLayout;fixedRows=1;rowLines=0;fontStyle=1;align=center;resizeLast=1;" parent="1" vertex="1">
          <mxGeometry x="308" y="-550" width="182" height="135" as="geometry">
            <mxRectangle x="90" y="-326.5" width="80" height="30" as="alternateBounds" />
          </mxGeometry>
        </mxCell>
        <mxCell id="ViDyMzBDKaSlZ37jl4wo-52" value="" style="shape=tableRow;horizontal=0;startSize=0;swimlaneHead=0;swimlaneBody=0;fillColor=none;collapsible=0;dropTarget=0;points=[[0,0.5],[1,0.5]];portConstraint=eastwest;top=0;left=0;right=0;bottom=1;" parent="ViDyMzBDKaSlZ37jl4wo-51" vertex="1">
          <mxGeometry y="30" width="182" height="70" as="geometry" />
        </mxCell>
        <mxCell id="ViDyMzBDKaSlZ37jl4wo-53" value="PK" style="shape=partialRectangle;connectable=0;fillColor=none;top=0;left=0;bottom=0;right=0;fontStyle=1;overflow=hidden;" parent="ViDyMzBDKaSlZ37jl4wo-52" vertex="1">
          <mxGeometry width="30" height="70" as="geometry">
            <mxRectangle width="30" height="70" as="alternateBounds" />
          </mxGeometry>
        </mxCell>
        <mxCell id="ViDyMzBDKaSlZ37jl4wo-54" value="connector_id&#xa;schema_name&#xa;table_name&#xa;column_name" style="shape=partialRectangle;connectable=0;fillColor=none;top=0;left=0;bottom=0;right=0;align=left;spacingLeft=6;fontStyle=5;overflow=hidden;" parent="ViDyMzBDKaSlZ37jl4wo-52" vertex="1">
          <mxGeometry x="30" width="152" height="70" as="geometry">
            <mxRectangle width="152" height="70" as="alternateBounds" />
          </mxGeometry>
        </mxCell>
        <mxCell id="ViDyMzBDKaSlZ37jl4wo-55" value="" style="shape=tableRow;horizontal=0;startSize=0;swimlaneHead=0;swimlaneBody=0;fillColor=none;collapsible=0;dropTarget=0;points=[[0,0.5],[1,0.5]];portConstraint=eastwest;top=0;left=0;right=0;bottom=0;" parent="ViDyMzBDKaSlZ37jl4wo-51" vertex="1">
          <mxGeometry y="100" width="182" height="35" as="geometry" />
        </mxCell>
        <mxCell id="ViDyMzBDKaSlZ37jl4wo-56" value="" style="shape=partialRectangle;connectable=0;fillColor=none;top=0;left=0;bottom=0;right=0;editable=1;overflow=hidden;" parent="ViDyMzBDKaSlZ37jl4wo-55" vertex="1">
          <mxGeometry width="30" height="35" as="geometry">
            <mxRectangle width="30" height="35" as="alternateBounds" />
          </mxGeometry>
        </mxCell>
        <mxCell id="ViDyMzBDKaSlZ37jl4wo-57" value="hub_column_type_cd (FK)&#xa;data_type_cd (FK)" style="shape=partialRectangle;connectable=0;fillColor=none;top=0;left=0;bottom=0;right=0;align=left;spacingLeft=6;overflow=hidden;" parent="ViDyMzBDKaSlZ37jl4wo-55" vertex="1">
          <mxGeometry x="30" width="152" height="35" as="geometry">
            <mxRectangle width="152" height="35" as="alternateBounds" />
          </mxGeometry>
        </mxCell>
        <mxCell id="ViDyMzBDKaSlZ37jl4wo-58" value="dv1_sat_columns" style="shape=table;startSize=30;container=1;collapsible=1;childLayout=tableLayout;fixedRows=1;rowLines=0;fontStyle=1;align=center;resizeLast=1;" parent="1" vertex="1">
          <mxGeometry x="542" y="-550" width="180" height="135" as="geometry">
            <mxRectangle x="90" y="-326.5" width="80" height="30" as="alternateBounds" />
          </mxGeometry>
        </mxCell>
        <mxCell id="ViDyMzBDKaSlZ37jl4wo-59" value="" style="shape=tableRow;horizontal=0;startSize=0;swimlaneHead=0;swimlaneBody=0;fillColor=none;collapsible=0;dropTarget=0;points=[[0,0.5],[1,0.5]];portConstraint=eastwest;top=0;left=0;right=0;bottom=1;" parent="ViDyMzBDKaSlZ37jl4wo-58" vertex="1">
          <mxGeometry y="30" width="180" height="70" as="geometry" />
        </mxCell>
        <mxCell id="ViDyMzBDKaSlZ37jl4wo-60" value="PK" style="shape=partialRectangle;connectable=0;fillColor=none;top=0;left=0;bottom=0;right=0;fontStyle=1;overflow=hidden;" parent="ViDyMzBDKaSlZ37jl4wo-59" vertex="1">
          <mxGeometry width="30" height="70" as="geometry">
            <mxRectangle width="30" height="70" as="alternateBounds" />
          </mxGeometry>
        </mxCell>
        <mxCell id="ViDyMzBDKaSlZ37jl4wo-61" value="connector_id&#xa;schema_name&#xa;table_name&#xa;column_name" style="shape=partialRectangle;connectable=0;fillColor=none;top=0;left=0;bottom=0;right=0;align=left;spacingLeft=6;fontStyle=5;overflow=hidden;" parent="ViDyMzBDKaSlZ37jl4wo-59" vertex="1">
          <mxGeometry x="30" width="150" height="70" as="geometry">
            <mxRectangle width="150" height="70" as="alternateBounds" />
          </mxGeometry>
        </mxCell>
        <mxCell id="ViDyMzBDKaSlZ37jl4wo-62" value="" style="shape=tableRow;horizontal=0;startSize=0;swimlaneHead=0;swimlaneBody=0;fillColor=none;collapsible=0;dropTarget=0;points=[[0,0.5],[1,0.5]];portConstraint=eastwest;top=0;left=0;right=0;bottom=0;" parent="ViDyMzBDKaSlZ37jl4wo-58" vertex="1">
          <mxGeometry y="100" width="180" height="35" as="geometry" />
        </mxCell>
        <mxCell id="ViDyMzBDKaSlZ37jl4wo-63" value="" style="shape=partialRectangle;connectable=0;fillColor=none;top=0;left=0;bottom=0;right=0;editable=1;overflow=hidden;" parent="ViDyMzBDKaSlZ37jl4wo-62" vertex="1">
          <mxGeometry width="30" height="35" as="geometry">
            <mxRectangle width="30" height="35" as="alternateBounds" />
          </mxGeometry>
        </mxCell>
        <mxCell id="ViDyMzBDKaSlZ37jl4wo-64" value="sat_column_type_cd (FK)&#xa;data_type_cd (FK)" style="shape=partialRectangle;connectable=0;fillColor=none;top=0;left=0;bottom=0;right=0;align=left;spacingLeft=6;overflow=hidden;" parent="ViDyMzBDKaSlZ37jl4wo-62" vertex="1">
          <mxGeometry x="30" width="150" height="35" as="geometry">
            <mxRectangle width="150" height="35" as="alternateBounds" />
          </mxGeometry>
        </mxCell>
        <mxCell id="ViDyMzBDKaSlZ37jl4wo-65" value="dict_lnk_column_types" style="shape=table;startSize=30;container=1;collapsible=1;childLayout=tableLayout;fixedRows=1;rowLines=0;fontStyle=1;align=center;resizeLast=1;" parent="1" vertex="1">
          <mxGeometry x="96" y="-377" width="160" height="70" as="geometry">
            <mxRectangle x="90" y="-326.5" width="80" height="30" as="alternateBounds" />
          </mxGeometry>
        </mxCell>
        <mxCell id="ViDyMzBDKaSlZ37jl4wo-66" value="" style="shape=tableRow;horizontal=0;startSize=0;swimlaneHead=0;swimlaneBody=0;fillColor=none;collapsible=0;dropTarget=0;points=[[0,0.5],[1,0.5]];portConstraint=eastwest;top=0;left=0;right=0;bottom=1;" parent="ViDyMzBDKaSlZ37jl4wo-65" vertex="1">
          <mxGeometry y="30" width="160" height="20" as="geometry" />
        </mxCell>
        <mxCell id="ViDyMzBDKaSlZ37jl4wo-67" value="PK" style="shape=partialRectangle;connectable=0;fillColor=none;top=0;left=0;bottom=0;right=0;fontStyle=1;overflow=hidden;" parent="ViDyMzBDKaSlZ37jl4wo-66" vertex="1">
          <mxGeometry width="30" height="20" as="geometry">
            <mxRectangle width="30" height="20" as="alternateBounds" />
          </mxGeometry>
        </mxCell>
        <mxCell id="ViDyMzBDKaSlZ37jl4wo-68" value="lnk_column_type_cd" style="shape=partialRectangle;connectable=0;fillColor=none;top=0;left=0;bottom=0;right=0;align=left;spacingLeft=6;fontStyle=5;overflow=hidden;" parent="ViDyMzBDKaSlZ37jl4wo-66" vertex="1">
          <mxGeometry x="30" width="130" height="20" as="geometry">
            <mxRectangle width="130" height="20" as="alternateBounds" />
          </mxGeometry>
        </mxCell>
        <mxCell id="ViDyMzBDKaSlZ37jl4wo-69" value="" style="shape=tableRow;horizontal=0;startSize=0;swimlaneHead=0;swimlaneBody=0;fillColor=none;collapsible=0;dropTarget=0;points=[[0,0.5],[1,0.5]];portConstraint=eastwest;top=0;left=0;right=0;bottom=0;" parent="ViDyMzBDKaSlZ37jl4wo-65" vertex="1">
          <mxGeometry y="50" width="160" height="20" as="geometry" />
        </mxCell>
        <mxCell id="ViDyMzBDKaSlZ37jl4wo-70" value="" style="shape=partialRectangle;connectable=0;fillColor=none;top=0;left=0;bottom=0;right=0;editable=1;overflow=hidden;" parent="ViDyMzBDKaSlZ37jl4wo-69" vertex="1">
          <mxGeometry width="30" height="20" as="geometry">
            <mxRectangle width="30" height="20" as="alternateBounds" />
          </mxGeometry>
        </mxCell>
        <mxCell id="ViDyMzBDKaSlZ37jl4wo-71" value="..." style="shape=partialRectangle;connectable=0;fillColor=none;top=0;left=0;bottom=0;right=0;align=left;spacingLeft=6;overflow=hidden;" parent="ViDyMzBDKaSlZ37jl4wo-69" vertex="1">
          <mxGeometry x="30" width="130" height="20" as="geometry">
            <mxRectangle width="130" height="20" as="alternateBounds" />
          </mxGeometry>
        </mxCell>
        <mxCell id="ViDyMzBDKaSlZ37jl4wo-72" value="dict_hub_column_types" style="shape=table;startSize=30;container=1;collapsible=1;childLayout=tableLayout;fixedRows=1;rowLines=0;fontStyle=1;align=center;resizeLast=1;" parent="1" vertex="1">
          <mxGeometry x="320" y="-377" width="170" height="70" as="geometry">
            <mxRectangle x="90" y="-326.5" width="80" height="30" as="alternateBounds" />
          </mxGeometry>
        </mxCell>
        <mxCell id="ViDyMzBDKaSlZ37jl4wo-73" value="" style="shape=tableRow;horizontal=0;startSize=0;swimlaneHead=0;swimlaneBody=0;fillColor=none;collapsible=0;dropTarget=0;points=[[0,0.5],[1,0.5]];portConstraint=eastwest;top=0;left=0;right=0;bottom=1;" parent="ViDyMzBDKaSlZ37jl4wo-72" vertex="1">
          <mxGeometry y="30" width="170" height="20" as="geometry" />
        </mxCell>
        <mxCell id="ViDyMzBDKaSlZ37jl4wo-74" value="PK" style="shape=partialRectangle;connectable=0;fillColor=none;top=0;left=0;bottom=0;right=0;fontStyle=1;overflow=hidden;" parent="ViDyMzBDKaSlZ37jl4wo-73" vertex="1">
          <mxGeometry width="30" height="20" as="geometry">
            <mxRectangle width="30" height="20" as="alternateBounds" />
          </mxGeometry>
        </mxCell>
        <mxCell id="ViDyMzBDKaSlZ37jl4wo-75" value="hub_column_type_cd" style="shape=partialRectangle;connectable=0;fillColor=none;top=0;left=0;bottom=0;right=0;align=left;spacingLeft=6;fontStyle=5;overflow=hidden;" parent="ViDyMzBDKaSlZ37jl4wo-73" vertex="1">
          <mxGeometry x="30" width="140" height="20" as="geometry">
            <mxRectangle width="140" height="20" as="alternateBounds" />
          </mxGeometry>
        </mxCell>
        <mxCell id="ViDyMzBDKaSlZ37jl4wo-76" value="" style="shape=tableRow;horizontal=0;startSize=0;swimlaneHead=0;swimlaneBody=0;fillColor=none;collapsible=0;dropTarget=0;points=[[0,0.5],[1,0.5]];portConstraint=eastwest;top=0;left=0;right=0;bottom=0;" parent="ViDyMzBDKaSlZ37jl4wo-72" vertex="1">
          <mxGeometry y="50" width="170" height="20" as="geometry" />
        </mxCell>
        <mxCell id="ViDyMzBDKaSlZ37jl4wo-77" value="" style="shape=partialRectangle;connectable=0;fillColor=none;top=0;left=0;bottom=0;right=0;editable=1;overflow=hidden;" parent="ViDyMzBDKaSlZ37jl4wo-76" vertex="1">
          <mxGeometry width="30" height="20" as="geometry">
            <mxRectangle width="30" height="20" as="alternateBounds" />
          </mxGeometry>
        </mxCell>
        <mxCell id="ViDyMzBDKaSlZ37jl4wo-78" value="..." style="shape=partialRectangle;connectable=0;fillColor=none;top=0;left=0;bottom=0;right=0;align=left;spacingLeft=6;overflow=hidden;" parent="ViDyMzBDKaSlZ37jl4wo-76" vertex="1">
          <mxGeometry x="30" width="140" height="20" as="geometry">
            <mxRectangle width="140" height="20" as="alternateBounds" />
          </mxGeometry>
        </mxCell>
        <mxCell id="ViDyMzBDKaSlZ37jl4wo-80" value="dict_sat_column_types" style="shape=table;startSize=30;container=1;collapsible=1;childLayout=tableLayout;fixedRows=1;rowLines=0;fontStyle=1;align=center;resizeLast=1;" parent="1" vertex="1">
          <mxGeometry x="547" y="-377" width="170" height="70" as="geometry">
            <mxRectangle x="90" y="-326.5" width="80" height="30" as="alternateBounds" />
          </mxGeometry>
        </mxCell>
        <mxCell id="ViDyMzBDKaSlZ37jl4wo-81" value="" style="shape=tableRow;horizontal=0;startSize=0;swimlaneHead=0;swimlaneBody=0;fillColor=none;collapsible=0;dropTarget=0;points=[[0,0.5],[1,0.5]];portConstraint=eastwest;top=0;left=0;right=0;bottom=1;" parent="ViDyMzBDKaSlZ37jl4wo-80" vertex="1">
          <mxGeometry y="30" width="170" height="20" as="geometry" />
        </mxCell>
        <mxCell id="ViDyMzBDKaSlZ37jl4wo-82" value="PK" style="shape=partialRectangle;connectable=0;fillColor=none;top=0;left=0;bottom=0;right=0;fontStyle=1;overflow=hidden;" parent="ViDyMzBDKaSlZ37jl4wo-81" vertex="1">
          <mxGeometry width="30" height="20" as="geometry">
            <mxRectangle width="30" height="20" as="alternateBounds" />
          </mxGeometry>
        </mxCell>
        <mxCell id="ViDyMzBDKaSlZ37jl4wo-83" value="sat_column_type_cd" style="shape=partialRectangle;connectable=0;fillColor=none;top=0;left=0;bottom=0;right=0;align=left;spacingLeft=6;fontStyle=5;overflow=hidden;" parent="ViDyMzBDKaSlZ37jl4wo-81" vertex="1">
          <mxGeometry x="30" width="140" height="20" as="geometry">
            <mxRectangle width="140" height="20" as="alternateBounds" />
          </mxGeometry>
        </mxCell>
        <mxCell id="ViDyMzBDKaSlZ37jl4wo-84" value="" style="shape=tableRow;horizontal=0;startSize=0;swimlaneHead=0;swimlaneBody=0;fillColor=none;collapsible=0;dropTarget=0;points=[[0,0.5],[1,0.5]];portConstraint=eastwest;top=0;left=0;right=0;bottom=0;" parent="ViDyMzBDKaSlZ37jl4wo-80" vertex="1">
          <mxGeometry y="50" width="170" height="20" as="geometry" />
        </mxCell>
        <mxCell id="ViDyMzBDKaSlZ37jl4wo-85" value="" style="shape=partialRectangle;connectable=0;fillColor=none;top=0;left=0;bottom=0;right=0;editable=1;overflow=hidden;" parent="ViDyMzBDKaSlZ37jl4wo-84" vertex="1">
          <mxGeometry width="30" height="20" as="geometry">
            <mxRectangle width="30" height="20" as="alternateBounds" />
          </mxGeometry>
        </mxCell>
        <mxCell id="ViDyMzBDKaSlZ37jl4wo-86" value="..." style="shape=partialRectangle;connectable=0;fillColor=none;top=0;left=0;bottom=0;right=0;align=left;spacingLeft=6;overflow=hidden;" parent="ViDyMzBDKaSlZ37jl4wo-84" vertex="1">
          <mxGeometry x="30" width="140" height="20" as="geometry">
            <mxRectangle width="140" height="20" as="alternateBounds" />
          </mxGeometry>
        </mxCell>
        <mxCell id="ViDyMzBDKaSlZ37jl4wo-87" style="edgeStyle=orthogonalEdgeStyle;rounded=0;orthogonalLoop=1;jettySize=auto;html=1;startArrow=ERone;startFill=0;endArrow=ERmany;endFill=0;" parent="1" source="ViDyMzBDKaSlZ37jl4wo-80" target="ViDyMzBDKaSlZ37jl4wo-58" edge="1">
          <mxGeometry relative="1" as="geometry">
            <Array as="points" />
            <mxPoint x="610" y="-395" as="sourcePoint" />
            <mxPoint x="610" y="-430" as="targetPoint" />
          </mxGeometry>
        </mxCell>
        <mxCell id="ViDyMzBDKaSlZ37jl4wo-88" style="edgeStyle=orthogonalEdgeStyle;rounded=0;orthogonalLoop=1;jettySize=auto;html=1;startArrow=ERone;startFill=0;endArrow=ERmany;endFill=0;exitX=0.413;exitY=0.02;exitDx=0;exitDy=0;exitPerimeter=0;" parent="1" source="ViDyMzBDKaSlZ37jl4wo-72" target="ViDyMzBDKaSlZ37jl4wo-51" edge="1">
          <mxGeometry relative="1" as="geometry">
            <Array as="points">
              <mxPoint x="395" y="-415" />
              <mxPoint x="395" y="-415" />
            </Array>
            <mxPoint x="540" y="-350" as="sourcePoint" />
            <mxPoint x="520" y="-415" as="targetPoint" />
          </mxGeometry>
        </mxCell>
        <mxCell id="ViDyMzBDKaSlZ37jl4wo-89" value="src_tables" style="shape=table;startSize=30;container=1;collapsible=1;childLayout=tableLayout;fixedRows=1;rowLines=0;fontStyle=1;align=center;resizeLast=1;" parent="1" vertex="1">
          <mxGeometry x="81" y="-805" width="130" height="102" as="geometry">
            <mxRectangle x="90" y="-326.5" width="80" height="30" as="alternateBounds" />
          </mxGeometry>
        </mxCell>
        <mxCell id="ViDyMzBDKaSlZ37jl4wo-90" value="" style="shape=tableRow;horizontal=0;startSize=0;swimlaneHead=0;swimlaneBody=0;fillColor=none;collapsible=0;dropTarget=0;points=[[0,0.5],[1,0.5]];portConstraint=eastwest;top=0;left=0;right=0;bottom=1;" parent="ViDyMzBDKaSlZ37jl4wo-89" vertex="1">
          <mxGeometry y="30" width="130" height="52" as="geometry" />
        </mxCell>
        <mxCell id="ViDyMzBDKaSlZ37jl4wo-91" value="PK" style="shape=partialRectangle;connectable=0;fillColor=none;top=0;left=0;bottom=0;right=0;fontStyle=1;overflow=hidden;" parent="ViDyMzBDKaSlZ37jl4wo-90" vertex="1">
          <mxGeometry width="30" height="52" as="geometry">
            <mxRectangle width="30" height="52" as="alternateBounds" />
          </mxGeometry>
        </mxCell>
        <mxCell id="ViDyMzBDKaSlZ37jl4wo-92" value="connector_id&#xa;schema_name&#xa;table_name" style="shape=partialRectangle;connectable=0;fillColor=none;top=0;left=0;bottom=0;right=0;align=left;spacingLeft=6;fontStyle=5;overflow=hidden;" parent="ViDyMzBDKaSlZ37jl4wo-90" vertex="1">
          <mxGeometry x="30" width="100" height="52" as="geometry">
            <mxRectangle width="100" height="52" as="alternateBounds" />
          </mxGeometry>
        </mxCell>
        <mxCell id="ViDyMzBDKaSlZ37jl4wo-93" value="" style="shape=tableRow;horizontal=0;startSize=0;swimlaneHead=0;swimlaneBody=0;fillColor=none;collapsible=0;dropTarget=0;points=[[0,0.5],[1,0.5]];portConstraint=eastwest;top=0;left=0;right=0;bottom=0;" parent="ViDyMzBDKaSlZ37jl4wo-89" vertex="1">
          <mxGeometry y="82" width="130" height="20" as="geometry" />
        </mxCell>
        <mxCell id="ViDyMzBDKaSlZ37jl4wo-94" value="" style="shape=partialRectangle;connectable=0;fillColor=none;top=0;left=0;bottom=0;right=0;editable=1;overflow=hidden;" parent="ViDyMzBDKaSlZ37jl4wo-93" vertex="1">
          <mxGeometry width="30" height="20" as="geometry">
            <mxRectangle width="30" height="20" as="alternateBounds" />
          </mxGeometry>
        </mxCell>
        <mxCell id="ViDyMzBDKaSlZ37jl4wo-95" value="..." style="shape=partialRectangle;connectable=0;fillColor=none;top=0;left=0;bottom=0;right=0;align=left;spacingLeft=6;overflow=hidden;" parent="ViDyMzBDKaSlZ37jl4wo-93" vertex="1">
          <mxGeometry x="30" width="100" height="20" as="geometry">
            <mxRectangle width="100" height="20" as="alternateBounds" />
          </mxGeometry>
        </mxCell>
        <mxCell id="ViDyMzBDKaSlZ37jl4wo-96" value="dv1_references" style="shape=table;startSize=30;container=1;collapsible=1;childLayout=tableLayout;fixedRows=1;rowLines=0;fontStyle=1;align=center;resizeLast=1;" parent="1" vertex="1">
          <mxGeometry x="581" y="-805" width="130" height="102" as="geometry">
            <mxRectangle x="90" y="-326.5" width="80" height="30" as="alternateBounds" />
          </mxGeometry>
        </mxCell>
        <mxCell id="ViDyMzBDKaSlZ37jl4wo-97" value="" style="shape=tableRow;horizontal=0;startSize=0;swimlaneHead=0;swimlaneBody=0;fillColor=none;collapsible=0;dropTarget=0;points=[[0,0.5],[1,0.5]];portConstraint=eastwest;top=0;left=0;right=0;bottom=1;" parent="ViDyMzBDKaSlZ37jl4wo-96" vertex="1">
          <mxGeometry y="30" width="130" height="52" as="geometry" />
        </mxCell>
        <mxCell id="ViDyMzBDKaSlZ37jl4wo-98" value="PK" style="shape=partialRectangle;connectable=0;fillColor=none;top=0;left=0;bottom=0;right=0;fontStyle=1;overflow=hidden;" parent="ViDyMzBDKaSlZ37jl4wo-97" vertex="1">
          <mxGeometry width="30" height="52" as="geometry">
            <mxRectangle width="30" height="52" as="alternateBounds" />
          </mxGeometry>
        </mxCell>
        <mxCell id="ViDyMzBDKaSlZ37jl4wo-99" value="connector_id&#xa;schema_name&#xa;table_name" style="shape=partialRectangle;connectable=0;fillColor=none;top=0;left=0;bottom=0;right=0;align=left;spacingLeft=6;fontStyle=5;overflow=hidden;" parent="ViDyMzBDKaSlZ37jl4wo-97" vertex="1">
          <mxGeometry x="30" width="100" height="52" as="geometry">
            <mxRectangle width="100" height="52" as="alternateBounds" />
          </mxGeometry>
        </mxCell>
        <mxCell id="ViDyMzBDKaSlZ37jl4wo-100" value="" style="shape=tableRow;horizontal=0;startSize=0;swimlaneHead=0;swimlaneBody=0;fillColor=none;collapsible=0;dropTarget=0;points=[[0,0.5],[1,0.5]];portConstraint=eastwest;top=0;left=0;right=0;bottom=0;" parent="ViDyMzBDKaSlZ37jl4wo-96" vertex="1">
          <mxGeometry y="82" width="130" height="20" as="geometry" />
        </mxCell>
        <mxCell id="ViDyMzBDKaSlZ37jl4wo-101" value="" style="shape=partialRectangle;connectable=0;fillColor=none;top=0;left=0;bottom=0;right=0;editable=1;overflow=hidden;" parent="ViDyMzBDKaSlZ37jl4wo-100" vertex="1">
          <mxGeometry width="30" height="20" as="geometry">
            <mxRectangle width="30" height="20" as="alternateBounds" />
          </mxGeometry>
        </mxCell>
        <mxCell id="ViDyMzBDKaSlZ37jl4wo-102" value="..." style="shape=partialRectangle;connectable=0;fillColor=none;top=0;left=0;bottom=0;right=0;align=left;spacingLeft=6;overflow=hidden;" parent="ViDyMzBDKaSlZ37jl4wo-100" vertex="1">
          <mxGeometry x="30" width="100" height="20" as="geometry">
            <mxRectangle width="100" height="20" as="alternateBounds" />
          </mxGeometry>
        </mxCell>
        <mxCell id="ViDyMzBDKaSlZ37jl4wo-103" value="dict_data_types" style="shape=table;startSize=30;container=1;collapsible=1;childLayout=tableLayout;fixedRows=1;rowLines=0;fontStyle=1;align=center;resizeLast=1;" parent="1" vertex="1">
          <mxGeometry x="325" y="-970" width="130" height="70" as="geometry">
            <mxRectangle x="90" y="-326.5" width="80" height="30" as="alternateBounds" />
          </mxGeometry>
        </mxCell>
        <mxCell id="ViDyMzBDKaSlZ37jl4wo-104" value="" style="shape=tableRow;horizontal=0;startSize=0;swimlaneHead=0;swimlaneBody=0;fillColor=none;collapsible=0;dropTarget=0;points=[[0,0.5],[1,0.5]];portConstraint=eastwest;top=0;left=0;right=0;bottom=1;" parent="ViDyMzBDKaSlZ37jl4wo-103" vertex="1">
          <mxGeometry y="30" width="130" height="20" as="geometry" />
        </mxCell>
        <mxCell id="ViDyMzBDKaSlZ37jl4wo-105" value="PK" style="shape=partialRectangle;connectable=0;fillColor=none;top=0;left=0;bottom=0;right=0;fontStyle=1;overflow=hidden;" parent="ViDyMzBDKaSlZ37jl4wo-104" vertex="1">
          <mxGeometry width="30" height="20" as="geometry">
            <mxRectangle width="30" height="20" as="alternateBounds" />
          </mxGeometry>
        </mxCell>
        <mxCell id="ViDyMzBDKaSlZ37jl4wo-106" value="data_type_cd" style="shape=partialRectangle;connectable=0;fillColor=none;top=0;left=0;bottom=0;right=0;align=left;spacingLeft=6;fontStyle=5;overflow=hidden;" parent="ViDyMzBDKaSlZ37jl4wo-104" vertex="1">
          <mxGeometry x="30" width="100" height="20" as="geometry">
            <mxRectangle width="100" height="20" as="alternateBounds" />
          </mxGeometry>
        </mxCell>
        <mxCell id="ViDyMzBDKaSlZ37jl4wo-107" value="" style="shape=tableRow;horizontal=0;startSize=0;swimlaneHead=0;swimlaneBody=0;fillColor=none;collapsible=0;dropTarget=0;points=[[0,0.5],[1,0.5]];portConstraint=eastwest;top=0;left=0;right=0;bottom=0;" parent="ViDyMzBDKaSlZ37jl4wo-103" vertex="1">
          <mxGeometry y="50" width="130" height="20" as="geometry" />
        </mxCell>
        <mxCell id="ViDyMzBDKaSlZ37jl4wo-108" value="" style="shape=partialRectangle;connectable=0;fillColor=none;top=0;left=0;bottom=0;right=0;editable=1;overflow=hidden;" parent="ViDyMzBDKaSlZ37jl4wo-107" vertex="1">
          <mxGeometry width="30" height="20" as="geometry">
            <mxRectangle width="30" height="20" as="alternateBounds" />
          </mxGeometry>
        </mxCell>
        <mxCell id="ViDyMzBDKaSlZ37jl4wo-109" value="..." style="shape=partialRectangle;connectable=0;fillColor=none;top=0;left=0;bottom=0;right=0;align=left;spacingLeft=6;overflow=hidden;" parent="ViDyMzBDKaSlZ37jl4wo-107" vertex="1">
          <mxGeometry x="30" width="100" height="20" as="geometry">
            <mxRectangle width="100" height="20" as="alternateBounds" />
          </mxGeometry>
        </mxCell>
        <mxCell id="ViDyMzBDKaSlZ37jl4wo-110" value="src_tab_columns" style="shape=table;startSize=30;container=1;collapsible=1;childLayout=tableLayout;fixedRows=1;rowLines=0;fontStyle=1;align=center;resizeLast=1;" parent="1" vertex="1">
          <mxGeometry x="81" y="-985" width="182" height="140" as="geometry">
            <mxRectangle x="90" y="-326.5" width="80" height="30" as="alternateBounds" />
          </mxGeometry>
        </mxCell>
        <mxCell id="ViDyMzBDKaSlZ37jl4wo-111" value="" style="shape=tableRow;horizontal=0;startSize=0;swimlaneHead=0;swimlaneBody=0;fillColor=none;collapsible=0;dropTarget=0;points=[[0,0.5],[1,0.5]];portConstraint=eastwest;top=0;left=0;right=0;bottom=1;" parent="ViDyMzBDKaSlZ37jl4wo-110" vertex="1">
          <mxGeometry y="30" width="182" height="70" as="geometry" />
        </mxCell>
        <mxCell id="ViDyMzBDKaSlZ37jl4wo-112" value="PK" style="shape=partialRectangle;connectable=0;fillColor=none;top=0;left=0;bottom=0;right=0;fontStyle=1;overflow=hidden;" parent="ViDyMzBDKaSlZ37jl4wo-111" vertex="1">
          <mxGeometry width="30" height="70" as="geometry">
            <mxRectangle width="30" height="70" as="alternateBounds" />
          </mxGeometry>
        </mxCell>
        <mxCell id="ViDyMzBDKaSlZ37jl4wo-113" value="connector_id&#xa;schema_name&#xa;table_name&#xa;column_name" style="shape=partialRectangle;connectable=0;fillColor=none;top=0;left=0;bottom=0;right=0;align=left;spacingLeft=6;fontStyle=5;overflow=hidden;" parent="ViDyMzBDKaSlZ37jl4wo-111" vertex="1">
          <mxGeometry x="30" width="152" height="70" as="geometry">
            <mxRectangle width="152" height="70" as="alternateBounds" />
          </mxGeometry>
        </mxCell>
        <mxCell id="ViDyMzBDKaSlZ37jl4wo-114" value="" style="shape=tableRow;horizontal=0;startSize=0;swimlaneHead=0;swimlaneBody=0;fillColor=none;collapsible=0;dropTarget=0;points=[[0,0.5],[1,0.5]];portConstraint=eastwest;top=0;left=0;right=0;bottom=0;" parent="ViDyMzBDKaSlZ37jl4wo-110" vertex="1">
          <mxGeometry y="100" width="182" height="40" as="geometry" />
        </mxCell>
        <mxCell id="ViDyMzBDKaSlZ37jl4wo-115" value="" style="shape=partialRectangle;connectable=0;fillColor=none;top=0;left=0;bottom=0;right=0;editable=1;overflow=hidden;" parent="ViDyMzBDKaSlZ37jl4wo-114" vertex="1">
          <mxGeometry width="30" height="40" as="geometry">
            <mxRectangle width="30" height="40" as="alternateBounds" />
          </mxGeometry>
        </mxCell>
        <mxCell id="ViDyMzBDKaSlZ37jl4wo-116" value="tab_col_type_cd (FK)&#xa;data_type_cd (FK)" style="shape=partialRectangle;connectable=0;fillColor=none;top=0;left=0;bottom=0;right=0;align=left;spacingLeft=6;overflow=hidden;" parent="ViDyMzBDKaSlZ37jl4wo-114" vertex="1">
          <mxGeometry x="30" width="152" height="40" as="geometry">
            <mxRectangle width="152" height="40" as="alternateBounds" />
          </mxGeometry>
        </mxCell>
        <mxCell id="ViDyMzBDKaSlZ37jl4wo-117" value="dict_tab_column_types" style="shape=table;startSize=30;container=1;collapsible=1;childLayout=tableLayout;fixedRows=1;rowLines=0;fontStyle=1;align=center;resizeLast=1;" parent="1" vertex="1">
          <mxGeometry x="92" y="-1095" width="160" height="70" as="geometry">
            <mxRectangle x="90" y="-326.5" width="80" height="30" as="alternateBounds" />
          </mxGeometry>
        </mxCell>
        <mxCell id="ViDyMzBDKaSlZ37jl4wo-118" value="" style="shape=tableRow;horizontal=0;startSize=0;swimlaneHead=0;swimlaneBody=0;fillColor=none;collapsible=0;dropTarget=0;points=[[0,0.5],[1,0.5]];portConstraint=eastwest;top=0;left=0;right=0;bottom=1;" parent="ViDyMzBDKaSlZ37jl4wo-117" vertex="1">
          <mxGeometry y="30" width="160" height="20" as="geometry" />
        </mxCell>
        <mxCell id="ViDyMzBDKaSlZ37jl4wo-119" value="PK" style="shape=partialRectangle;connectable=0;fillColor=none;top=0;left=0;bottom=0;right=0;fontStyle=1;overflow=hidden;" parent="ViDyMzBDKaSlZ37jl4wo-118" vertex="1">
          <mxGeometry width="30" height="20" as="geometry">
            <mxRectangle width="30" height="20" as="alternateBounds" />
          </mxGeometry>
        </mxCell>
        <mxCell id="ViDyMzBDKaSlZ37jl4wo-120" value="tab_col_type_cd" style="shape=partialRectangle;connectable=0;fillColor=none;top=0;left=0;bottom=0;right=0;align=left;spacingLeft=6;fontStyle=5;overflow=hidden;" parent="ViDyMzBDKaSlZ37jl4wo-118" vertex="1">
          <mxGeometry x="30" width="130" height="20" as="geometry">
            <mxRectangle width="130" height="20" as="alternateBounds" />
          </mxGeometry>
        </mxCell>
        <mxCell id="ViDyMzBDKaSlZ37jl4wo-121" value="" style="shape=tableRow;horizontal=0;startSize=0;swimlaneHead=0;swimlaneBody=0;fillColor=none;collapsible=0;dropTarget=0;points=[[0,0.5],[1,0.5]];portConstraint=eastwest;top=0;left=0;right=0;bottom=0;" parent="ViDyMzBDKaSlZ37jl4wo-117" vertex="1">
          <mxGeometry y="50" width="160" height="20" as="geometry" />
        </mxCell>
        <mxCell id="ViDyMzBDKaSlZ37jl4wo-122" value="" style="shape=partialRectangle;connectable=0;fillColor=none;top=0;left=0;bottom=0;right=0;editable=1;overflow=hidden;" parent="ViDyMzBDKaSlZ37jl4wo-121" vertex="1">
          <mxGeometry width="30" height="20" as="geometry">
            <mxRectangle width="30" height="20" as="alternateBounds" />
          </mxGeometry>
        </mxCell>
        <mxCell id="ViDyMzBDKaSlZ37jl4wo-123" value="..." style="shape=partialRectangle;connectable=0;fillColor=none;top=0;left=0;bottom=0;right=0;align=left;spacingLeft=6;overflow=hidden;" parent="ViDyMzBDKaSlZ37jl4wo-121" vertex="1">
          <mxGeometry x="30" width="130" height="20" as="geometry">
            <mxRectangle width="130" height="20" as="alternateBounds" />
          </mxGeometry>
        </mxCell>
        <mxCell id="ViDyMzBDKaSlZ37jl4wo-124" value="dv1_ref_columns" style="shape=table;startSize=30;container=1;collapsible=1;childLayout=tableLayout;fixedRows=1;rowLines=0;fontStyle=1;align=center;resizeLast=1;" parent="1" vertex="1">
          <mxGeometry x="529" y="-995" width="182" height="140" as="geometry">
            <mxRectangle x="90" y="-326.5" width="80" height="30" as="alternateBounds" />
          </mxGeometry>
        </mxCell>
        <mxCell id="ViDyMzBDKaSlZ37jl4wo-125" value="" style="shape=tableRow;horizontal=0;startSize=0;swimlaneHead=0;swimlaneBody=0;fillColor=none;collapsible=0;dropTarget=0;points=[[0,0.5],[1,0.5]];portConstraint=eastwest;top=0;left=0;right=0;bottom=1;" parent="ViDyMzBDKaSlZ37jl4wo-124" vertex="1">
          <mxGeometry y="30" width="182" height="70" as="geometry" />
        </mxCell>
        <mxCell id="ViDyMzBDKaSlZ37jl4wo-126" value="PK" style="shape=partialRectangle;connectable=0;fillColor=none;top=0;left=0;bottom=0;right=0;fontStyle=1;overflow=hidden;" parent="ViDyMzBDKaSlZ37jl4wo-125" vertex="1">
          <mxGeometry width="30" height="70" as="geometry">
            <mxRectangle width="30" height="70" as="alternateBounds" />
          </mxGeometry>
        </mxCell>
        <mxCell id="ViDyMzBDKaSlZ37jl4wo-127" value="connector_id&#xa;schema_name&#xa;table_name&#xa;column_name" style="shape=partialRectangle;connectable=0;fillColor=none;top=0;left=0;bottom=0;right=0;align=left;spacingLeft=6;fontStyle=5;overflow=hidden;" parent="ViDyMzBDKaSlZ37jl4wo-125" vertex="1">
          <mxGeometry x="30" width="152" height="70" as="geometry">
            <mxRectangle width="152" height="70" as="alternateBounds" />
          </mxGeometry>
        </mxCell>
        <mxCell id="ViDyMzBDKaSlZ37jl4wo-128" value="" style="shape=tableRow;horizontal=0;startSize=0;swimlaneHead=0;swimlaneBody=0;fillColor=none;collapsible=0;dropTarget=0;points=[[0,0.5],[1,0.5]];portConstraint=eastwest;top=0;left=0;right=0;bottom=0;" parent="ViDyMzBDKaSlZ37jl4wo-124" vertex="1">
          <mxGeometry y="100" width="182" height="40" as="geometry" />
        </mxCell>
        <mxCell id="ViDyMzBDKaSlZ37jl4wo-129" value="" style="shape=partialRectangle;connectable=0;fillColor=none;top=0;left=0;bottom=0;right=0;editable=1;overflow=hidden;" parent="ViDyMzBDKaSlZ37jl4wo-128" vertex="1">
          <mxGeometry width="30" height="40" as="geometry">
            <mxRectangle width="30" height="40" as="alternateBounds" />
          </mxGeometry>
        </mxCell>
        <mxCell id="ViDyMzBDKaSlZ37jl4wo-130" value="ref_col_type_cd (FK)&#xa;data_type_cd (FK)" style="shape=partialRectangle;connectable=0;fillColor=none;top=0;left=0;bottom=0;right=0;align=left;spacingLeft=6;overflow=hidden;" parent="ViDyMzBDKaSlZ37jl4wo-128" vertex="1">
          <mxGeometry x="30" width="152" height="40" as="geometry">
            <mxRectangle width="152" height="40" as="alternateBounds" />
          </mxGeometry>
        </mxCell>
        <mxCell id="ViDyMzBDKaSlZ37jl4wo-131" value="dict_ref_column_types" style="shape=table;startSize=30;container=1;collapsible=1;childLayout=tableLayout;fixedRows=1;rowLines=0;fontStyle=1;align=center;resizeLast=1;" parent="1" vertex="1">
          <mxGeometry x="540" y="-1095" width="160" height="70" as="geometry">
            <mxRectangle x="90" y="-326.5" width="80" height="30" as="alternateBounds" />
          </mxGeometry>
        </mxCell>
        <mxCell id="ViDyMzBDKaSlZ37jl4wo-132" value="" style="shape=tableRow;horizontal=0;startSize=0;swimlaneHead=0;swimlaneBody=0;fillColor=none;collapsible=0;dropTarget=0;points=[[0,0.5],[1,0.5]];portConstraint=eastwest;top=0;left=0;right=0;bottom=1;" parent="ViDyMzBDKaSlZ37jl4wo-131" vertex="1">
          <mxGeometry y="30" width="160" height="20" as="geometry" />
        </mxCell>
        <mxCell id="ViDyMzBDKaSlZ37jl4wo-133" value="PK" style="shape=partialRectangle;connectable=0;fillColor=none;top=0;left=0;bottom=0;right=0;fontStyle=1;overflow=hidden;" parent="ViDyMzBDKaSlZ37jl4wo-132" vertex="1">
          <mxGeometry width="30" height="20" as="geometry">
            <mxRectangle width="30" height="20" as="alternateBounds" />
          </mxGeometry>
        </mxCell>
        <mxCell id="ViDyMzBDKaSlZ37jl4wo-134" value="ref_col_type_cd" style="shape=partialRectangle;connectable=0;fillColor=none;top=0;left=0;bottom=0;right=0;align=left;spacingLeft=6;fontStyle=5;overflow=hidden;" parent="ViDyMzBDKaSlZ37jl4wo-132" vertex="1">
          <mxGeometry x="30" width="130" height="20" as="geometry">
            <mxRectangle width="130" height="20" as="alternateBounds" />
          </mxGeometry>
        </mxCell>
        <mxCell id="ViDyMzBDKaSlZ37jl4wo-135" value="" style="shape=tableRow;horizontal=0;startSize=0;swimlaneHead=0;swimlaneBody=0;fillColor=none;collapsible=0;dropTarget=0;points=[[0,0.5],[1,0.5]];portConstraint=eastwest;top=0;left=0;right=0;bottom=0;" parent="ViDyMzBDKaSlZ37jl4wo-131" vertex="1">
          <mxGeometry y="50" width="160" height="20" as="geometry" />
        </mxCell>
        <mxCell id="ViDyMzBDKaSlZ37jl4wo-136" value="" style="shape=partialRectangle;connectable=0;fillColor=none;top=0;left=0;bottom=0;right=0;editable=1;overflow=hidden;" parent="ViDyMzBDKaSlZ37jl4wo-135" vertex="1">
          <mxGeometry width="30" height="20" as="geometry">
            <mxRectangle width="30" height="20" as="alternateBounds" />
          </mxGeometry>
        </mxCell>
        <mxCell id="ViDyMzBDKaSlZ37jl4wo-137" value="..." style="shape=partialRectangle;connectable=0;fillColor=none;top=0;left=0;bottom=0;right=0;align=left;spacingLeft=6;overflow=hidden;" parent="ViDyMzBDKaSlZ37jl4wo-135" vertex="1">
          <mxGeometry x="30" width="130" height="20" as="geometry">
            <mxRectangle width="130" height="20" as="alternateBounds" />
          </mxGeometry>
        </mxCell>
        <mxCell id="ViDyMzBDKaSlZ37jl4wo-138" style="edgeStyle=orthogonalEdgeStyle;rounded=0;orthogonalLoop=1;jettySize=auto;html=1;startArrow=ERone;startFill=0;endArrow=ERmany;endFill=0;" parent="1" source="ViDyMzBDKaSlZ37jl4wo-103" target="ViDyMzBDKaSlZ37jl4wo-51" edge="1">
          <mxGeometry relative="1" as="geometry">
            <Array as="points">
              <mxPoint x="290" y="-915" />
              <mxPoint x="290" y="-482" />
            </Array>
            <mxPoint x="197" y="-574" as="sourcePoint" />
            <mxPoint x="197" y="-540" as="targetPoint" />
          </mxGeometry>
        </mxCell>
        <mxCell id="riXHZPJmQeNiCrEStDQB-1" value="dict_satellite_types" style="shape=table;startSize=30;container=1;collapsible=1;childLayout=tableLayout;fixedRows=1;rowLines=0;fontStyle=1;align=center;resizeLast=1;" parent="1" vertex="1">
          <mxGeometry x="670" y="-686" width="150" height="70" as="geometry">
            <mxRectangle x="90" y="-326.5" width="80" height="30" as="alternateBounds" />
          </mxGeometry>
        </mxCell>
        <mxCell id="riXHZPJmQeNiCrEStDQB-2" value="" style="shape=tableRow;horizontal=0;startSize=0;swimlaneHead=0;swimlaneBody=0;fillColor=none;collapsible=0;dropTarget=0;points=[[0,0.5],[1,0.5]];portConstraint=eastwest;top=0;left=0;right=0;bottom=1;" parent="riXHZPJmQeNiCrEStDQB-1" vertex="1">
          <mxGeometry y="30" width="150" height="20" as="geometry" />
        </mxCell>
        <mxCell id="riXHZPJmQeNiCrEStDQB-3" value="PK" style="shape=partialRectangle;connectable=0;fillColor=none;top=0;left=0;bottom=0;right=0;fontStyle=1;overflow=hidden;" parent="riXHZPJmQeNiCrEStDQB-2" vertex="1">
          <mxGeometry width="30" height="20" as="geometry">
            <mxRectangle width="30" height="20" as="alternateBounds" />
          </mxGeometry>
        </mxCell>
        <mxCell id="riXHZPJmQeNiCrEStDQB-4" value="satellite_type_cd" style="shape=partialRectangle;connectable=0;fillColor=none;top=0;left=0;bottom=0;right=0;align=left;spacingLeft=6;fontStyle=5;overflow=hidden;" parent="riXHZPJmQeNiCrEStDQB-2" vertex="1">
          <mxGeometry x="30" width="120" height="20" as="geometry">
            <mxRectangle width="120" height="20" as="alternateBounds" />
          </mxGeometry>
        </mxCell>
        <mxCell id="riXHZPJmQeNiCrEStDQB-5" value="" style="shape=tableRow;horizontal=0;startSize=0;swimlaneHead=0;swimlaneBody=0;fillColor=none;collapsible=0;dropTarget=0;points=[[0,0.5],[1,0.5]];portConstraint=eastwest;top=0;left=0;right=0;bottom=0;" parent="riXHZPJmQeNiCrEStDQB-1" vertex="1">
          <mxGeometry y="50" width="150" height="20" as="geometry" />
        </mxCell>
        <mxCell id="riXHZPJmQeNiCrEStDQB-6" value="" style="shape=partialRectangle;connectable=0;fillColor=none;top=0;left=0;bottom=0;right=0;editable=1;overflow=hidden;" parent="riXHZPJmQeNiCrEStDQB-5" vertex="1">
          <mxGeometry width="30" height="20" as="geometry">
            <mxRectangle width="30" height="20" as="alternateBounds" />
          </mxGeometry>
        </mxCell>
        <mxCell id="riXHZPJmQeNiCrEStDQB-7" value="..." style="shape=partialRectangle;connectable=0;fillColor=none;top=0;left=0;bottom=0;right=0;align=left;spacingLeft=6;overflow=hidden;" parent="riXHZPJmQeNiCrEStDQB-5" vertex="1">
          <mxGeometry x="30" width="120" height="20" as="geometry">
            <mxRectangle width="120" height="20" as="alternateBounds" />
          </mxGeometry>
        </mxCell>
        <mxCell id="riXHZPJmQeNiCrEStDQB-8" style="edgeStyle=orthogonalEdgeStyle;rounded=0;orthogonalLoop=1;jettySize=auto;html=1;startArrow=ERone;startFill=0;endArrow=ERmany;endFill=0;" parent="1" source="riXHZPJmQeNiCrEStDQB-1" target="ViDyMzBDKaSlZ37jl4wo-26" edge="1">
          <mxGeometry relative="1" as="geometry">
            <Array as="points">
              <mxPoint x="750" y="-600" />
            </Array>
            <mxPoint x="615" y="-574" as="sourcePoint" />
            <mxPoint x="615" y="-540" as="targetPoint" />
          </mxGeometry>
        </mxCell>
        <mxCell id="1IhYmAJWVgXZFWIyLwH3-1" value="dict_distr_style" style="shape=table;startSize=20;container=1;collapsible=1;childLayout=tableLayout;fixedRows=1;rowLines=0;fontStyle=1;align=center;resizeLast=1;" parent="1" vertex="1">
          <mxGeometry x="325" y="-880" width="130" height="60" as="geometry">
            <mxRectangle x="90" y="-326.5" width="80" height="30" as="alternateBounds" />
          </mxGeometry>
        </mxCell>
        <mxCell id="1IhYmAJWVgXZFWIyLwH3-2" value="" style="shape=tableRow;horizontal=0;startSize=0;swimlaneHead=0;swimlaneBody=0;fillColor=none;collapsible=0;dropTarget=0;points=[[0,0.5],[1,0.5]];portConstraint=eastwest;top=0;left=0;right=0;bottom=1;" parent="1IhYmAJWVgXZFWIyLwH3-1" vertex="1">
          <mxGeometry y="20" width="130" height="20" as="geometry" />
        </mxCell>
        <mxCell id="1IhYmAJWVgXZFWIyLwH3-3" value="PK" style="shape=partialRectangle;connectable=0;fillColor=none;top=0;left=0;bottom=0;right=0;fontStyle=1;overflow=hidden;" parent="1IhYmAJWVgXZFWIyLwH3-2" vertex="1">
          <mxGeometry width="30" height="20" as="geometry">
            <mxRectangle width="30" height="20" as="alternateBounds" />
          </mxGeometry>
        </mxCell>
        <mxCell id="1IhYmAJWVgXZFWIyLwH3-4" value="distr_style_cd" style="shape=partialRectangle;connectable=0;fillColor=none;top=0;left=0;bottom=0;right=0;align=left;spacingLeft=6;fontStyle=5;overflow=hidden;" parent="1IhYmAJWVgXZFWIyLwH3-2" vertex="1">
          <mxGeometry x="30" width="100" height="20" as="geometry">
            <mxRectangle width="100" height="20" as="alternateBounds" />
          </mxGeometry>
        </mxCell>
        <mxCell id="1IhYmAJWVgXZFWIyLwH3-5" value="" style="shape=tableRow;horizontal=0;startSize=0;swimlaneHead=0;swimlaneBody=0;fillColor=none;collapsible=0;dropTarget=0;points=[[0,0.5],[1,0.5]];portConstraint=eastwest;top=0;left=0;right=0;bottom=0;" parent="1IhYmAJWVgXZFWIyLwH3-1" vertex="1">
          <mxGeometry y="40" width="130" height="20" as="geometry" />
        </mxCell>
        <mxCell id="1IhYmAJWVgXZFWIyLwH3-6" value="" style="shape=partialRectangle;connectable=0;fillColor=none;top=0;left=0;bottom=0;right=0;editable=1;overflow=hidden;" parent="1IhYmAJWVgXZFWIyLwH3-5" vertex="1">
          <mxGeometry width="30" height="20" as="geometry">
            <mxRectangle width="30" height="20" as="alternateBounds" />
          </mxGeometry>
        </mxCell>
        <mxCell id="1IhYmAJWVgXZFWIyLwH3-7" value="..." style="shape=partialRectangle;connectable=0;fillColor=none;top=0;left=0;bottom=0;right=0;align=left;spacingLeft=6;overflow=hidden;" parent="1IhYmAJWVgXZFWIyLwH3-5" vertex="1">
          <mxGeometry x="30" width="100" height="20" as="geometry">
            <mxRectangle width="100" height="20" as="alternateBounds" />
          </mxGeometry>
        </mxCell>
        <mxCell id="1IhYmAJWVgXZFWIyLwH3-9" style="edgeStyle=orthogonalEdgeStyle;rounded=0;orthogonalLoop=1;jettySize=auto;html=1;startArrow=ERone;startFill=0;endArrow=ERmany;endFill=0;entryX=0.688;entryY=0.017;entryDx=0;entryDy=0;entryPerimeter=0;" parent="1" source="1IhYmAJWVgXZFWIyLwH3-1" target="ViDyMzBDKaSlZ37jl4wo-89" edge="1">
          <mxGeometry relative="1" as="geometry">
            <Array as="points">
              <mxPoint x="170" y="-840" />
            </Array>
            <mxPoint x="310" y="-840" as="sourcePoint" />
            <mxPoint x="256" y="-830" as="targetPoint" />
          </mxGeometry>
        </mxCell>
        <mxCell id="1IhYmAJWVgXZFWIyLwH3-10" style="edgeStyle=orthogonalEdgeStyle;rounded=0;orthogonalLoop=1;jettySize=auto;html=1;startArrow=ERone;startFill=0;endArrow=ERmany;endFill=0;" parent="1" source="1IhYmAJWVgXZFWIyLwH3-1" target="ViDyMzBDKaSlZ37jl4wo-96" edge="1">
          <mxGeometry relative="1" as="geometry">
            <Array as="points">
              <mxPoint x="620" y="-840" />
            </Array>
            <mxPoint x="335" y="-820" as="sourcePoint" />
            <mxPoint x="180" y="-793" as="targetPoint" />
          </mxGeometry>
        </mxCell>
        <mxCell id="1IhYmAJWVgXZFWIyLwH3-13" style="edgeStyle=orthogonalEdgeStyle;rounded=0;orthogonalLoop=1;jettySize=auto;html=1;startArrow=ERone;startFill=0;endArrow=ERmany;endFill=0;exitX=-0.001;exitY=-0.01;exitDx=0;exitDy=0;exitPerimeter=0;" parent="1" source="1IhYmAJWVgXZFWIyLwH3-5" target="ViDyMzBDKaSlZ37jl4wo-1" edge="1">
          <mxGeometry relative="1" as="geometry">
            <Array as="points">
              <mxPoint x="230" y="-840" />
            </Array>
            <mxPoint x="320" y="-840" as="sourcePoint" />
            <mxPoint x="180" y="-793" as="targetPoint" />
          </mxGeometry>
        </mxCell>
        <mxCell id="1IhYmAJWVgXZFWIyLwH3-14" style="edgeStyle=orthogonalEdgeStyle;rounded=0;orthogonalLoop=1;jettySize=auto;html=1;startArrow=ERone;startFill=0;endArrow=ERmany;endFill=0;" parent="1" target="ViDyMzBDKaSlZ37jl4wo-26" edge="1">
          <mxGeometry relative="1" as="geometry">
            <Array as="points">
              <mxPoint x="455" y="-840" />
              <mxPoint x="550" y="-840" />
            </Array>
            <mxPoint x="455" y="-840" as="sourcePoint" />
            <mxPoint x="560" y="-730" as="targetPoint" />
          </mxGeometry>
        </mxCell>
        <mxCell id="1IhYmAJWVgXZFWIyLwH3-15" style="edgeStyle=orthogonalEdgeStyle;rounded=0;orthogonalLoop=1;jettySize=auto;html=1;startArrow=ERone;startFill=0;endArrow=ERmany;endFill=0;entryX=0.844;entryY=0.014;entryDx=0;entryDy=0;entryPerimeter=0;" parent="1" target="ViDyMzBDKaSlZ37jl4wo-19" edge="1">
          <mxGeometry relative="1" as="geometry">
            <Array as="points">
              <mxPoint x="550" y="-840" />
              <mxPoint x="550" y="-720" />
              <mxPoint x="435" y="-720" />
            </Array>
            <mxPoint x="455" y="-840" as="sourcePoint" />
            <mxPoint x="470" y="-710" as="targetPoint" />
          </mxGeometry>
        </mxCell>
      </root>
    </mxGraphModel>
  </diagram>
  <diagram id="YCBJYiK__QYU_wDkWs7B" name="candidates">
    <mxGraphModel dx="1034" dy="576" grid="1" gridSize="10" guides="1" tooltips="1" connect="1" arrows="1" fold="1" page="1" pageScale="1" pageWidth="850" pageHeight="1100" math="0" shadow="0">
      <root>
        <mxCell id="0" />
        <mxCell id="1" parent="0" />
        <mxCell id="SKS3VU8gWSY6OHk9DK0j-1" value="candidate" style="shape=table;startSize=30;container=1;collapsible=1;childLayout=tableLayout;fixedRows=1;rowLines=0;fontStyle=1;align=center;resizeLast=1;" parent="1" vertex="1">
          <mxGeometry x="320" y="220" width="210" height="100" as="geometry">
            <mxRectangle x="90" y="-326.5" width="80" height="30" as="alternateBounds" />
          </mxGeometry>
        </mxCell>
        <mxCell id="SKS3VU8gWSY6OHk9DK0j-2" value="" style="shape=tableRow;horizontal=0;startSize=0;swimlaneHead=0;swimlaneBody=0;fillColor=none;collapsible=0;dropTarget=0;points=[[0,0.5],[1,0.5]];portConstraint=eastwest;top=0;left=0;right=0;bottom=1;" parent="SKS3VU8gWSY6OHk9DK0j-1" vertex="1">
          <mxGeometry y="30" width="210" height="20" as="geometry" />
        </mxCell>
        <mxCell id="SKS3VU8gWSY6OHk9DK0j-3" value="PK" style="shape=partialRectangle;connectable=0;fillColor=none;top=0;left=0;bottom=0;right=0;fontStyle=1;overflow=hidden;" parent="SKS3VU8gWSY6OHk9DK0j-2" vertex="1">
          <mxGeometry width="30" height="20" as="geometry">
            <mxRectangle width="30" height="20" as="alternateBounds" />
          </mxGeometry>
        </mxCell>
        <mxCell id="SKS3VU8gWSY6OHk9DK0j-4" value="id" style="shape=partialRectangle;connectable=0;fillColor=none;top=0;left=0;bottom=0;right=0;align=left;spacingLeft=6;fontStyle=5;overflow=hidden;" parent="SKS3VU8gWSY6OHk9DK0j-2" vertex="1">
          <mxGeometry x="30" width="180" height="20" as="geometry">
            <mxRectangle width="180" height="20" as="alternateBounds" />
          </mxGeometry>
        </mxCell>
        <mxCell id="SKS3VU8gWSY6OHk9DK0j-5" value="" style="shape=tableRow;horizontal=0;startSize=0;swimlaneHead=0;swimlaneBody=0;fillColor=none;collapsible=0;dropTarget=0;points=[[0,0.5],[1,0.5]];portConstraint=eastwest;top=0;left=0;right=0;bottom=0;" parent="SKS3VU8gWSY6OHk9DK0j-1" vertex="1">
          <mxGeometry y="50" width="210" height="50" as="geometry" />
        </mxCell>
        <mxCell id="SKS3VU8gWSY6OHk9DK0j-6" value="" style="shape=partialRectangle;connectable=0;fillColor=none;top=0;left=0;bottom=0;right=0;editable=1;overflow=hidden;" parent="SKS3VU8gWSY6OHk9DK0j-5" vertex="1">
          <mxGeometry width="30" height="50" as="geometry">
            <mxRectangle width="30" height="50" as="alternateBounds" />
          </mxGeometry>
        </mxCell>
        <mxCell id="SKS3VU8gWSY6OHk9DK0j-7" value="user_id (FK)&#xa;passport_id (FK)&#xa;fast_track_immediate_record_id" style="shape=partialRectangle;connectable=0;fillColor=none;top=0;left=0;bottom=0;right=0;align=left;spacingLeft=6;overflow=hidden;" parent="SKS3VU8gWSY6OHk9DK0j-5" vertex="1">
          <mxGeometry x="30" width="180" height="50" as="geometry">
            <mxRectangle width="180" height="50" as="alternateBounds" />
          </mxGeometry>
        </mxCell>
        <mxCell id="3XE-tAw7WgJ3G5NeptaF-1" value="users" style="shape=table;startSize=30;container=1;collapsible=1;childLayout=tableLayout;fixedRows=1;rowLines=0;fontStyle=1;align=center;resizeLast=1;" parent="1" vertex="1">
          <mxGeometry x="530" y="120" width="130" height="70" as="geometry">
            <mxRectangle x="90" y="-326.5" width="80" height="30" as="alternateBounds" />
          </mxGeometry>
        </mxCell>
        <mxCell id="3XE-tAw7WgJ3G5NeptaF-2" value="" style="shape=tableRow;horizontal=0;startSize=0;swimlaneHead=0;swimlaneBody=0;fillColor=none;collapsible=0;dropTarget=0;points=[[0,0.5],[1,0.5]];portConstraint=eastwest;top=0;left=0;right=0;bottom=1;" parent="3XE-tAw7WgJ3G5NeptaF-1" vertex="1">
          <mxGeometry y="30" width="130" height="20" as="geometry" />
        </mxCell>
        <mxCell id="3XE-tAw7WgJ3G5NeptaF-3" value="PK" style="shape=partialRectangle;connectable=0;fillColor=none;top=0;left=0;bottom=0;right=0;fontStyle=1;overflow=hidden;" parent="3XE-tAw7WgJ3G5NeptaF-2" vertex="1">
          <mxGeometry width="30" height="20" as="geometry">
            <mxRectangle width="30" height="20" as="alternateBounds" />
          </mxGeometry>
        </mxCell>
        <mxCell id="3XE-tAw7WgJ3G5NeptaF-4" value="id" style="shape=partialRectangle;connectable=0;fillColor=none;top=0;left=0;bottom=0;right=0;align=left;spacingLeft=6;fontStyle=5;overflow=hidden;" parent="3XE-tAw7WgJ3G5NeptaF-2" vertex="1">
          <mxGeometry x="30" width="100" height="20" as="geometry">
            <mxRectangle width="100" height="20" as="alternateBounds" />
          </mxGeometry>
        </mxCell>
        <mxCell id="3XE-tAw7WgJ3G5NeptaF-5" value="" style="shape=tableRow;horizontal=0;startSize=0;swimlaneHead=0;swimlaneBody=0;fillColor=none;collapsible=0;dropTarget=0;points=[[0,0.5],[1,0.5]];portConstraint=eastwest;top=0;left=0;right=0;bottom=0;" parent="3XE-tAw7WgJ3G5NeptaF-1" vertex="1">
          <mxGeometry y="50" width="130" height="20" as="geometry" />
        </mxCell>
        <mxCell id="3XE-tAw7WgJ3G5NeptaF-6" value="" style="shape=partialRectangle;connectable=0;fillColor=none;top=0;left=0;bottom=0;right=0;editable=1;overflow=hidden;" parent="3XE-tAw7WgJ3G5NeptaF-5" vertex="1">
          <mxGeometry width="30" height="20" as="geometry">
            <mxRectangle width="30" height="20" as="alternateBounds" />
          </mxGeometry>
        </mxCell>
        <mxCell id="3XE-tAw7WgJ3G5NeptaF-7" value="..." style="shape=partialRectangle;connectable=0;fillColor=none;top=0;left=0;bottom=0;right=0;align=left;spacingLeft=6;overflow=hidden;" parent="3XE-tAw7WgJ3G5NeptaF-5" vertex="1">
          <mxGeometry x="30" width="100" height="20" as="geometry">
            <mxRectangle width="100" height="20" as="alternateBounds" />
          </mxGeometry>
        </mxCell>
        <mxCell id="3XE-tAw7WgJ3G5NeptaF-8" value="passport" style="shape=table;startSize=30;container=1;collapsible=1;childLayout=tableLayout;fixedRows=1;rowLines=0;fontStyle=1;align=center;resizeLast=1;" parent="1" vertex="1">
          <mxGeometry x="140" y="110" width="130" height="80" as="geometry">
            <mxRectangle x="90" y="-326.5" width="80" height="30" as="alternateBounds" />
          </mxGeometry>
        </mxCell>
        <mxCell id="3XE-tAw7WgJ3G5NeptaF-9" value="" style="shape=tableRow;horizontal=0;startSize=0;swimlaneHead=0;swimlaneBody=0;fillColor=none;collapsible=0;dropTarget=0;points=[[0,0.5],[1,0.5]];portConstraint=eastwest;top=0;left=0;right=0;bottom=1;" parent="3XE-tAw7WgJ3G5NeptaF-8" vertex="1">
          <mxGeometry y="30" width="130" height="20" as="geometry" />
        </mxCell>
        <mxCell id="3XE-tAw7WgJ3G5NeptaF-10" value="PK" style="shape=partialRectangle;connectable=0;fillColor=none;top=0;left=0;bottom=0;right=0;fontStyle=1;overflow=hidden;" parent="3XE-tAw7WgJ3G5NeptaF-9" vertex="1">
          <mxGeometry width="30" height="20" as="geometry">
            <mxRectangle width="30" height="20" as="alternateBounds" />
          </mxGeometry>
        </mxCell>
        <mxCell id="3XE-tAw7WgJ3G5NeptaF-11" value="id" style="shape=partialRectangle;connectable=0;fillColor=none;top=0;left=0;bottom=0;right=0;align=left;spacingLeft=6;fontStyle=5;overflow=hidden;" parent="3XE-tAw7WgJ3G5NeptaF-9" vertex="1">
          <mxGeometry x="30" width="100" height="20" as="geometry">
            <mxRectangle width="100" height="20" as="alternateBounds" />
          </mxGeometry>
        </mxCell>
        <mxCell id="3XE-tAw7WgJ3G5NeptaF-12" value="" style="shape=tableRow;horizontal=0;startSize=0;swimlaneHead=0;swimlaneBody=0;fillColor=none;collapsible=0;dropTarget=0;points=[[0,0.5],[1,0.5]];portConstraint=eastwest;top=0;left=0;right=0;bottom=0;" parent="3XE-tAw7WgJ3G5NeptaF-8" vertex="1">
          <mxGeometry y="50" width="130" height="30" as="geometry" />
        </mxCell>
        <mxCell id="3XE-tAw7WgJ3G5NeptaF-13" value="" style="shape=partialRectangle;connectable=0;fillColor=none;top=0;left=0;bottom=0;right=0;editable=1;overflow=hidden;" parent="3XE-tAw7WgJ3G5NeptaF-12" vertex="1">
          <mxGeometry width="30" height="30" as="geometry">
            <mxRectangle width="30" height="30" as="alternateBounds" />
          </mxGeometry>
        </mxCell>
        <mxCell id="3XE-tAw7WgJ3G5NeptaF-14" value="user_id (FK)" style="shape=partialRectangle;connectable=0;fillColor=none;top=0;left=0;bottom=0;right=0;align=left;spacingLeft=6;overflow=hidden;" parent="3XE-tAw7WgJ3G5NeptaF-12" vertex="1">
          <mxGeometry x="30" width="100" height="30" as="geometry">
            <mxRectangle width="100" height="30" as="alternateBounds" />
          </mxGeometry>
        </mxCell>
        <mxCell id="eeQe7cTowP6B4UKIAKMi-1" style="edgeStyle=orthogonalEdgeStyle;rounded=0;orthogonalLoop=1;jettySize=auto;html=1;startArrow=ERone;startFill=0;endArrow=ERmany;endFill=0;" parent="1" source="3XE-tAw7WgJ3G5NeptaF-1" target="SKS3VU8gWSY6OHk9DK0j-1" edge="1">
          <mxGeometry relative="1" as="geometry">
            <Array as="points">
              <mxPoint x="590" y="250" />
            </Array>
            <mxPoint x="490" y="240" as="sourcePoint" />
            <mxPoint x="430" y="430" as="targetPoint" />
          </mxGeometry>
        </mxCell>
        <mxCell id="eeQe7cTowP6B4UKIAKMi-2" style="edgeStyle=orthogonalEdgeStyle;rounded=0;orthogonalLoop=1;jettySize=auto;html=1;startArrow=ERone;startFill=0;endArrow=ERmany;endFill=0;" parent="1" source="3XE-tAw7WgJ3G5NeptaF-1" target="3XE-tAw7WgJ3G5NeptaF-8" edge="1">
          <mxGeometry relative="1" as="geometry">
            <Array as="points">
              <mxPoint x="300" y="160" />
              <mxPoint x="300" y="160" />
            </Array>
            <mxPoint x="150" y="350" as="sourcePoint" />
            <mxPoint x="460" y="260" as="targetPoint" />
          </mxGeometry>
        </mxCell>
        <mxCell id="eeQe7cTowP6B4UKIAKMi-3" value="fast_track_immediate_record" style="shape=table;startSize=30;container=1;collapsible=1;childLayout=tableLayout;fixedRows=1;rowLines=0;fontStyle=1;align=center;resizeLast=1;" parent="1" vertex="1">
          <mxGeometry x="335" y="420" width="180" height="70" as="geometry">
            <mxRectangle x="90" y="-326.5" width="80" height="30" as="alternateBounds" />
          </mxGeometry>
        </mxCell>
        <mxCell id="eeQe7cTowP6B4UKIAKMi-4" value="" style="shape=tableRow;horizontal=0;startSize=0;swimlaneHead=0;swimlaneBody=0;fillColor=none;collapsible=0;dropTarget=0;points=[[0,0.5],[1,0.5]];portConstraint=eastwest;top=0;left=0;right=0;bottom=1;" parent="eeQe7cTowP6B4UKIAKMi-3" vertex="1">
          <mxGeometry y="30" width="180" height="20" as="geometry" />
        </mxCell>
        <mxCell id="eeQe7cTowP6B4UKIAKMi-5" value="PK" style="shape=partialRectangle;connectable=0;fillColor=none;top=0;left=0;bottom=0;right=0;fontStyle=1;overflow=hidden;" parent="eeQe7cTowP6B4UKIAKMi-4" vertex="1">
          <mxGeometry width="30" height="20" as="geometry">
            <mxRectangle width="30" height="20" as="alternateBounds" />
          </mxGeometry>
        </mxCell>
        <mxCell id="eeQe7cTowP6B4UKIAKMi-6" value="id" style="shape=partialRectangle;connectable=0;fillColor=none;top=0;left=0;bottom=0;right=0;align=left;spacingLeft=6;fontStyle=5;overflow=hidden;" parent="eeQe7cTowP6B4UKIAKMi-4" vertex="1">
          <mxGeometry x="30" width="150" height="20" as="geometry">
            <mxRectangle width="150" height="20" as="alternateBounds" />
          </mxGeometry>
        </mxCell>
        <mxCell id="eeQe7cTowP6B4UKIAKMi-7" value="" style="shape=tableRow;horizontal=0;startSize=0;swimlaneHead=0;swimlaneBody=0;fillColor=none;collapsible=0;dropTarget=0;points=[[0,0.5],[1,0.5]];portConstraint=eastwest;top=0;left=0;right=0;bottom=0;" parent="eeQe7cTowP6B4UKIAKMi-3" vertex="1">
          <mxGeometry y="50" width="180" height="20" as="geometry" />
        </mxCell>
        <mxCell id="eeQe7cTowP6B4UKIAKMi-8" value="" style="shape=partialRectangle;connectable=0;fillColor=none;top=0;left=0;bottom=0;right=0;editable=1;overflow=hidden;" parent="eeQe7cTowP6B4UKIAKMi-7" vertex="1">
          <mxGeometry width="30" height="20" as="geometry">
            <mxRectangle width="30" height="20" as="alternateBounds" />
          </mxGeometry>
        </mxCell>
        <mxCell id="eeQe7cTowP6B4UKIAKMi-9" value="..." style="shape=partialRectangle;connectable=0;fillColor=none;top=0;left=0;bottom=0;right=0;align=left;spacingLeft=6;overflow=hidden;" parent="eeQe7cTowP6B4UKIAKMi-7" vertex="1">
          <mxGeometry x="30" width="150" height="20" as="geometry">
            <mxRectangle width="150" height="20" as="alternateBounds" />
          </mxGeometry>
        </mxCell>
        <mxCell id="eeQe7cTowP6B4UKIAKMi-10" style="edgeStyle=orthogonalEdgeStyle;rounded=0;orthogonalLoop=1;jettySize=auto;html=1;startArrow=ERone;startFill=0;endArrow=ERmany;endFill=0;" parent="1" source="eeQe7cTowP6B4UKIAKMi-3" target="SKS3VU8gWSY6OHk9DK0j-1" edge="1">
          <mxGeometry relative="1" as="geometry">
            <Array as="points">
              <mxPoint x="425" y="360" />
              <mxPoint x="425" y="360" />
            </Array>
            <mxPoint x="600" y="200" as="sourcePoint" />
            <mxPoint x="540" y="260" as="targetPoint" />
          </mxGeometry>
        </mxCell>
        <mxCell id="eeQe7cTowP6B4UKIAKMi-11" style="edgeStyle=orthogonalEdgeStyle;rounded=0;orthogonalLoop=1;jettySize=auto;html=1;startArrow=ERone;startFill=0;endArrow=ERmany;endFill=0;" parent="1" source="3XE-tAw7WgJ3G5NeptaF-8" target="SKS3VU8gWSY6OHk9DK0j-1" edge="1">
          <mxGeometry relative="1" as="geometry">
            <Array as="points">
              <mxPoint x="205" y="270" />
            </Array>
            <mxPoint x="650" y="300" as="sourcePoint" />
            <mxPoint x="590" y="360" as="targetPoint" />
          </mxGeometry>
        </mxCell>
      </root>
    </mxGraphModel>
  </diagram>
  <diagram id="xeIwM6kdviiqSJPCFto0" name="verification">
    <mxGraphModel dx="1034" dy="576" grid="1" gridSize="10" guides="1" tooltips="1" connect="1" arrows="1" fold="1" page="1" pageScale="1" pageWidth="850" pageHeight="1100" math="0" shadow="0">
      <root>
        <mxCell id="0" />
        <mxCell id="1" parent="0" />
        <mxCell id="RHqCO4La5v0MLhkmDGB6-1" value="verification_request" style="shape=table;startSize=30;container=1;collapsible=1;childLayout=tableLayout;fixedRows=1;rowLines=0;fontStyle=1;align=center;resizeLast=1;" vertex="1" parent="1">
          <mxGeometry x="320" y="220" width="210" height="100" as="geometry">
            <mxRectangle x="90" y="-326.5" width="80" height="30" as="alternateBounds" />
          </mxGeometry>
        </mxCell>
        <mxCell id="RHqCO4La5v0MLhkmDGB6-2" value="" style="shape=tableRow;horizontal=0;startSize=0;swimlaneHead=0;swimlaneBody=0;fillColor=none;collapsible=0;dropTarget=0;points=[[0,0.5],[1,0.5]];portConstraint=eastwest;top=0;left=0;right=0;bottom=1;" vertex="1" parent="RHqCO4La5v0MLhkmDGB6-1">
          <mxGeometry y="30" width="210" height="20" as="geometry" />
        </mxCell>
        <mxCell id="RHqCO4La5v0MLhkmDGB6-3" value="PK" style="shape=partialRectangle;connectable=0;fillColor=none;top=0;left=0;bottom=0;right=0;fontStyle=1;overflow=hidden;" vertex="1" parent="RHqCO4La5v0MLhkmDGB6-2">
          <mxGeometry width="30" height="20" as="geometry">
            <mxRectangle width="30" height="20" as="alternateBounds" />
          </mxGeometry>
        </mxCell>
        <mxCell id="RHqCO4La5v0MLhkmDGB6-4" value="id" style="shape=partialRectangle;connectable=0;fillColor=none;top=0;left=0;bottom=0;right=0;align=left;spacingLeft=6;fontStyle=5;overflow=hidden;" vertex="1" parent="RHqCO4La5v0MLhkmDGB6-2">
          <mxGeometry x="30" width="180" height="20" as="geometry">
            <mxRectangle width="180" height="20" as="alternateBounds" />
          </mxGeometry>
        </mxCell>
        <mxCell id="RHqCO4La5v0MLhkmDGB6-5" value="" style="shape=tableRow;horizontal=0;startSize=0;swimlaneHead=0;swimlaneBody=0;fillColor=none;collapsible=0;dropTarget=0;points=[[0,0.5],[1,0.5]];portConstraint=eastwest;top=0;left=0;right=0;bottom=0;" vertex="1" parent="RHqCO4La5v0MLhkmDGB6-1">
          <mxGeometry y="50" width="210" height="50" as="geometry" />
        </mxCell>
        <mxCell id="RHqCO4La5v0MLhkmDGB6-6" value="" style="shape=partialRectangle;connectable=0;fillColor=none;top=0;left=0;bottom=0;right=0;editable=1;overflow=hidden;" vertex="1" parent="RHqCO4La5v0MLhkmDGB6-5">
          <mxGeometry width="30" height="50" as="geometry">
            <mxRectangle width="30" height="50" as="alternateBounds" />
          </mxGeometry>
        </mxCell>
        <mxCell id="RHqCO4La5v0MLhkmDGB6-7" value="persona (FK)&#xa;passport_id (FK)&#xa;fast_track_immediate_record_id" style="shape=partialRectangle;connectable=0;fillColor=none;top=0;left=0;bottom=0;right=0;align=left;spacingLeft=6;overflow=hidden;" vertex="1" parent="RHqCO4La5v0MLhkmDGB6-5">
          <mxGeometry x="30" width="180" height="50" as="geometry">
            <mxRectangle width="180" height="50" as="alternateBounds" />
          </mxGeometry>
        </mxCell>
        <mxCell id="1ScUjLGBHMxBpoSH8Gzn-1" value="verification_request_persona" style="shape=table;startSize=30;container=1;collapsible=1;childLayout=tableLayout;fixedRows=1;rowLines=0;fontStyle=1;align=center;resizeLast=1;" vertex="1" parent="1">
          <mxGeometry x="550" y="60" width="230" height="70" as="geometry">
            <mxRectangle x="90" y="-326.5" width="80" height="30" as="alternateBounds" />
          </mxGeometry>
        </mxCell>
        <mxCell id="1ScUjLGBHMxBpoSH8Gzn-2" value="" style="shape=tableRow;horizontal=0;startSize=0;swimlaneHead=0;swimlaneBody=0;fillColor=none;collapsible=0;dropTarget=0;points=[[0,0.5],[1,0.5]];portConstraint=eastwest;top=0;left=0;right=0;bottom=1;" vertex="1" parent="1ScUjLGBHMxBpoSH8Gzn-1">
          <mxGeometry y="30" width="230" height="20" as="geometry" />
        </mxCell>
        <mxCell id="1ScUjLGBHMxBpoSH8Gzn-3" value="PK" style="shape=partialRectangle;connectable=0;fillColor=none;top=0;left=0;bottom=0;right=0;fontStyle=1;overflow=hidden;" vertex="1" parent="1ScUjLGBHMxBpoSH8Gzn-2">
          <mxGeometry width="30" height="20" as="geometry">
            <mxRectangle width="30" height="20" as="alternateBounds" />
          </mxGeometry>
        </mxCell>
        <mxCell id="1ScUjLGBHMxBpoSH8Gzn-4" value="id" style="shape=partialRectangle;connectable=0;fillColor=none;top=0;left=0;bottom=0;right=0;align=left;spacingLeft=6;fontStyle=5;overflow=hidden;" vertex="1" parent="1ScUjLGBHMxBpoSH8Gzn-2">
          <mxGeometry x="30" width="200" height="20" as="geometry">
            <mxRectangle width="200" height="20" as="alternateBounds" />
          </mxGeometry>
        </mxCell>
        <mxCell id="1ScUjLGBHMxBpoSH8Gzn-5" value="" style="shape=tableRow;horizontal=0;startSize=0;swimlaneHead=0;swimlaneBody=0;fillColor=none;collapsible=0;dropTarget=0;points=[[0,0.5],[1,0.5]];portConstraint=eastwest;top=0;left=0;right=0;bottom=0;" vertex="1" parent="1ScUjLGBHMxBpoSH8Gzn-1">
          <mxGeometry y="50" width="230" height="20" as="geometry" />
        </mxCell>
        <mxCell id="1ScUjLGBHMxBpoSH8Gzn-6" value="" style="shape=partialRectangle;connectable=0;fillColor=none;top=0;left=0;bottom=0;right=0;editable=1;overflow=hidden;" vertex="1" parent="1ScUjLGBHMxBpoSH8Gzn-5">
          <mxGeometry width="30" height="20" as="geometry">
            <mxRectangle width="30" height="20" as="alternateBounds" />
          </mxGeometry>
        </mxCell>
        <mxCell id="1ScUjLGBHMxBpoSH8Gzn-7" value="..." style="shape=partialRectangle;connectable=0;fillColor=none;top=0;left=0;bottom=0;right=0;align=left;spacingLeft=6;overflow=hidden;" vertex="1" parent="1ScUjLGBHMxBpoSH8Gzn-5">
          <mxGeometry x="30" width="200" height="20" as="geometry">
            <mxRectangle width="200" height="20" as="alternateBounds" />
          </mxGeometry>
        </mxCell>
        <mxCell id="1ScUjLGBHMxBpoSH8Gzn-8" value="verification_request_education" style="shape=table;startSize=30;container=1;collapsible=1;childLayout=tableLayout;fixedRows=1;rowLines=0;fontStyle=1;align=center;resizeLast=1;" vertex="1" parent="1">
          <mxGeometry x="290" y="60" width="230" height="70" as="geometry">
            <mxRectangle x="90" y="-326.5" width="80" height="30" as="alternateBounds" />
          </mxGeometry>
        </mxCell>
        <mxCell id="1ScUjLGBHMxBpoSH8Gzn-9" value="" style="shape=tableRow;horizontal=0;startSize=0;swimlaneHead=0;swimlaneBody=0;fillColor=none;collapsible=0;dropTarget=0;points=[[0,0.5],[1,0.5]];portConstraint=eastwest;top=0;left=0;right=0;bottom=1;" vertex="1" parent="1ScUjLGBHMxBpoSH8Gzn-8">
          <mxGeometry y="30" width="230" height="20" as="geometry" />
        </mxCell>
        <mxCell id="1ScUjLGBHMxBpoSH8Gzn-10" value="PK" style="shape=partialRectangle;connectable=0;fillColor=none;top=0;left=0;bottom=0;right=0;fontStyle=1;overflow=hidden;" vertex="1" parent="1ScUjLGBHMxBpoSH8Gzn-9">
          <mxGeometry width="30" height="20" as="geometry">
            <mxRectangle width="30" height="20" as="alternateBounds" />
          </mxGeometry>
        </mxCell>
        <mxCell id="1ScUjLGBHMxBpoSH8Gzn-11" value="id" style="shape=partialRectangle;connectable=0;fillColor=none;top=0;left=0;bottom=0;right=0;align=left;spacingLeft=6;fontStyle=5;overflow=hidden;" vertex="1" parent="1ScUjLGBHMxBpoSH8Gzn-9">
          <mxGeometry x="30" width="200" height="20" as="geometry">
            <mxRectangle width="200" height="20" as="alternateBounds" />
          </mxGeometry>
        </mxCell>
        <mxCell id="1ScUjLGBHMxBpoSH8Gzn-12" value="" style="shape=tableRow;horizontal=0;startSize=0;swimlaneHead=0;swimlaneBody=0;fillColor=none;collapsible=0;dropTarget=0;points=[[0,0.5],[1,0.5]];portConstraint=eastwest;top=0;left=0;right=0;bottom=0;" vertex="1" parent="1ScUjLGBHMxBpoSH8Gzn-8">
          <mxGeometry y="50" width="230" height="20" as="geometry" />
        </mxCell>
        <mxCell id="1ScUjLGBHMxBpoSH8Gzn-13" value="" style="shape=partialRectangle;connectable=0;fillColor=none;top=0;left=0;bottom=0;right=0;editable=1;overflow=hidden;" vertex="1" parent="1ScUjLGBHMxBpoSH8Gzn-12">
          <mxGeometry width="30" height="20" as="geometry">
            <mxRectangle width="30" height="20" as="alternateBounds" />
          </mxGeometry>
        </mxCell>
        <mxCell id="1ScUjLGBHMxBpoSH8Gzn-14" value="..." style="shape=partialRectangle;connectable=0;fillColor=none;top=0;left=0;bottom=0;right=0;align=left;spacingLeft=6;overflow=hidden;" vertex="1" parent="1ScUjLGBHMxBpoSH8Gzn-12">
          <mxGeometry x="30" width="200" height="20" as="geometry">
            <mxRectangle width="200" height="20" as="alternateBounds" />
          </mxGeometry>
        </mxCell>
        <mxCell id="1ScUjLGBHMxBpoSH8Gzn-15" value="verification_request_employment" style="shape=table;startSize=30;container=1;collapsible=1;childLayout=tableLayout;fixedRows=1;rowLines=0;fontStyle=1;align=center;resizeLast=1;" vertex="1" parent="1">
          <mxGeometry x="30" y="60" width="230" height="70" as="geometry">
            <mxRectangle x="90" y="-326.5" width="80" height="30" as="alternateBounds" />
          </mxGeometry>
        </mxCell>
        <mxCell id="1ScUjLGBHMxBpoSH8Gzn-16" value="" style="shape=tableRow;horizontal=0;startSize=0;swimlaneHead=0;swimlaneBody=0;fillColor=none;collapsible=0;dropTarget=0;points=[[0,0.5],[1,0.5]];portConstraint=eastwest;top=0;left=0;right=0;bottom=1;" vertex="1" parent="1ScUjLGBHMxBpoSH8Gzn-15">
          <mxGeometry y="30" width="230" height="20" as="geometry" />
        </mxCell>
        <mxCell id="1ScUjLGBHMxBpoSH8Gzn-17" value="PK" style="shape=partialRectangle;connectable=0;fillColor=none;top=0;left=0;bottom=0;right=0;fontStyle=1;overflow=hidden;" vertex="1" parent="1ScUjLGBHMxBpoSH8Gzn-16">
          <mxGeometry width="30" height="20" as="geometry">
            <mxRectangle width="30" height="20" as="alternateBounds" />
          </mxGeometry>
        </mxCell>
        <mxCell id="1ScUjLGBHMxBpoSH8Gzn-18" value="id" style="shape=partialRectangle;connectable=0;fillColor=none;top=0;left=0;bottom=0;right=0;align=left;spacingLeft=6;fontStyle=5;overflow=hidden;" vertex="1" parent="1ScUjLGBHMxBpoSH8Gzn-16">
          <mxGeometry x="30" width="200" height="20" as="geometry">
            <mxRectangle width="200" height="20" as="alternateBounds" />
          </mxGeometry>
        </mxCell>
        <mxCell id="1ScUjLGBHMxBpoSH8Gzn-19" value="" style="shape=tableRow;horizontal=0;startSize=0;swimlaneHead=0;swimlaneBody=0;fillColor=none;collapsible=0;dropTarget=0;points=[[0,0.5],[1,0.5]];portConstraint=eastwest;top=0;left=0;right=0;bottom=0;" vertex="1" parent="1ScUjLGBHMxBpoSH8Gzn-15">
          <mxGeometry y="50" width="230" height="20" as="geometry" />
        </mxCell>
        <mxCell id="1ScUjLGBHMxBpoSH8Gzn-20" value="" style="shape=partialRectangle;connectable=0;fillColor=none;top=0;left=0;bottom=0;right=0;editable=1;overflow=hidden;" vertex="1" parent="1ScUjLGBHMxBpoSH8Gzn-19">
          <mxGeometry width="30" height="20" as="geometry">
            <mxRectangle width="30" height="20" as="alternateBounds" />
          </mxGeometry>
        </mxCell>
        <mxCell id="1ScUjLGBHMxBpoSH8Gzn-21" value="..." style="shape=partialRectangle;connectable=0;fillColor=none;top=0;left=0;bottom=0;right=0;align=left;spacingLeft=6;overflow=hidden;" vertex="1" parent="1ScUjLGBHMxBpoSH8Gzn-19">
          <mxGeometry x="30" width="200" height="20" as="geometry">
            <mxRectangle width="200" height="20" as="alternateBounds" />
          </mxGeometry>
        </mxCell>
        <mxCell id="1ScUjLGBHMxBpoSH8Gzn-22" value="verification_request_validation" style="shape=table;startSize=30;container=1;collapsible=1;childLayout=tableLayout;fixedRows=1;rowLines=0;fontStyle=1;align=center;resizeLast=1;" vertex="1" parent="1">
          <mxGeometry x="30" y="160" width="230" height="70" as="geometry">
            <mxRectangle x="90" y="-326.5" width="80" height="30" as="alternateBounds" />
          </mxGeometry>
        </mxCell>
        <mxCell id="1ScUjLGBHMxBpoSH8Gzn-23" value="" style="shape=tableRow;horizontal=0;startSize=0;swimlaneHead=0;swimlaneBody=0;fillColor=none;collapsible=0;dropTarget=0;points=[[0,0.5],[1,0.5]];portConstraint=eastwest;top=0;left=0;right=0;bottom=1;" vertex="1" parent="1ScUjLGBHMxBpoSH8Gzn-22">
          <mxGeometry y="30" width="230" height="20" as="geometry" />
        </mxCell>
        <mxCell id="1ScUjLGBHMxBpoSH8Gzn-24" value="PK" style="shape=partialRectangle;connectable=0;fillColor=none;top=0;left=0;bottom=0;right=0;fontStyle=1;overflow=hidden;" vertex="1" parent="1ScUjLGBHMxBpoSH8Gzn-23">
          <mxGeometry width="30" height="20" as="geometry">
            <mxRectangle width="30" height="20" as="alternateBounds" />
          </mxGeometry>
        </mxCell>
        <mxCell id="1ScUjLGBHMxBpoSH8Gzn-25" value="id" style="shape=partialRectangle;connectable=0;fillColor=none;top=0;left=0;bottom=0;right=0;align=left;spacingLeft=6;fontStyle=5;overflow=hidden;" vertex="1" parent="1ScUjLGBHMxBpoSH8Gzn-23">
          <mxGeometry x="30" width="200" height="20" as="geometry">
            <mxRectangle width="200" height="20" as="alternateBounds" />
          </mxGeometry>
        </mxCell>
        <mxCell id="1ScUjLGBHMxBpoSH8Gzn-26" value="" style="shape=tableRow;horizontal=0;startSize=0;swimlaneHead=0;swimlaneBody=0;fillColor=none;collapsible=0;dropTarget=0;points=[[0,0.5],[1,0.5]];portConstraint=eastwest;top=0;left=0;right=0;bottom=0;" vertex="1" parent="1ScUjLGBHMxBpoSH8Gzn-22">
          <mxGeometry y="50" width="230" height="20" as="geometry" />
        </mxCell>
        <mxCell id="1ScUjLGBHMxBpoSH8Gzn-27" value="" style="shape=partialRectangle;connectable=0;fillColor=none;top=0;left=0;bottom=0;right=0;editable=1;overflow=hidden;" vertex="1" parent="1ScUjLGBHMxBpoSH8Gzn-26">
          <mxGeometry width="30" height="20" as="geometry">
            <mxRectangle width="30" height="20" as="alternateBounds" />
          </mxGeometry>
        </mxCell>
        <mxCell id="1ScUjLGBHMxBpoSH8Gzn-28" value="..." style="shape=partialRectangle;connectable=0;fillColor=none;top=0;left=0;bottom=0;right=0;align=left;spacingLeft=6;overflow=hidden;" vertex="1" parent="1ScUjLGBHMxBpoSH8Gzn-26">
          <mxGeometry x="30" width="200" height="20" as="geometry">
            <mxRectangle width="200" height="20" as="alternateBounds" />
          </mxGeometry>
        </mxCell>
        <mxCell id="1ScUjLGBHMxBpoSH8Gzn-29" value="candidate" style="shape=table;startSize=30;container=1;collapsible=1;childLayout=tableLayout;fixedRows=1;rowLines=0;fontStyle=1;align=center;resizeLast=1;" vertex="1" parent="1">
          <mxGeometry x="30" y="260" width="230" height="70" as="geometry">
            <mxRectangle x="90" y="-326.5" width="80" height="30" as="alternateBounds" />
          </mxGeometry>
        </mxCell>
        <mxCell id="1ScUjLGBHMxBpoSH8Gzn-30" value="" style="shape=tableRow;horizontal=0;startSize=0;swimlaneHead=0;swimlaneBody=0;fillColor=none;collapsible=0;dropTarget=0;points=[[0,0.5],[1,0.5]];portConstraint=eastwest;top=0;left=0;right=0;bottom=1;" vertex="1" parent="1ScUjLGBHMxBpoSH8Gzn-29">
          <mxGeometry y="30" width="230" height="20" as="geometry" />
        </mxCell>
        <mxCell id="1ScUjLGBHMxBpoSH8Gzn-31" value="PK" style="shape=partialRectangle;connectable=0;fillColor=none;top=0;left=0;bottom=0;right=0;fontStyle=1;overflow=hidden;" vertex="1" parent="1ScUjLGBHMxBpoSH8Gzn-30">
          <mxGeometry width="30" height="20" as="geometry">
            <mxRectangle width="30" height="20" as="alternateBounds" />
          </mxGeometry>
        </mxCell>
        <mxCell id="1ScUjLGBHMxBpoSH8Gzn-32" value="id" style="shape=partialRectangle;connectable=0;fillColor=none;top=0;left=0;bottom=0;right=0;align=left;spacingLeft=6;fontStyle=5;overflow=hidden;" vertex="1" parent="1ScUjLGBHMxBpoSH8Gzn-30">
          <mxGeometry x="30" width="200" height="20" as="geometry">
            <mxRectangle width="200" height="20" as="alternateBounds" />
          </mxGeometry>
        </mxCell>
        <mxCell id="1ScUjLGBHMxBpoSH8Gzn-33" value="" style="shape=tableRow;horizontal=0;startSize=0;swimlaneHead=0;swimlaneBody=0;fillColor=none;collapsible=0;dropTarget=0;points=[[0,0.5],[1,0.5]];portConstraint=eastwest;top=0;left=0;right=0;bottom=0;" vertex="1" parent="1ScUjLGBHMxBpoSH8Gzn-29">
          <mxGeometry y="50" width="230" height="20" as="geometry" />
        </mxCell>
        <mxCell id="1ScUjLGBHMxBpoSH8Gzn-34" value="" style="shape=partialRectangle;connectable=0;fillColor=none;top=0;left=0;bottom=0;right=0;editable=1;overflow=hidden;" vertex="1" parent="1ScUjLGBHMxBpoSH8Gzn-33">
          <mxGeometry width="30" height="20" as="geometry">
            <mxRectangle width="30" height="20" as="alternateBounds" />
          </mxGeometry>
        </mxCell>
        <mxCell id="1ScUjLGBHMxBpoSH8Gzn-35" value="..." style="shape=partialRectangle;connectable=0;fillColor=none;top=0;left=0;bottom=0;right=0;align=left;spacingLeft=6;overflow=hidden;" vertex="1" parent="1ScUjLGBHMxBpoSH8Gzn-33">
          <mxGeometry x="30" width="200" height="20" as="geometry">
            <mxRectangle width="200" height="20" as="alternateBounds" />
          </mxGeometry>
        </mxCell>
        <mxCell id="1ScUjLGBHMxBpoSH8Gzn-36" value="service_provider_company" style="shape=table;startSize=30;container=1;collapsible=1;childLayout=tableLayout;fixedRows=1;rowLines=0;fontStyle=1;align=center;resizeLast=1;" vertex="1" parent="1">
          <mxGeometry x="30" y="370" width="230" height="70" as="geometry">
            <mxRectangle x="90" y="-326.5" width="80" height="30" as="alternateBounds" />
          </mxGeometry>
        </mxCell>
        <mxCell id="1ScUjLGBHMxBpoSH8Gzn-37" value="" style="shape=tableRow;horizontal=0;startSize=0;swimlaneHead=0;swimlaneBody=0;fillColor=none;collapsible=0;dropTarget=0;points=[[0,0.5],[1,0.5]];portConstraint=eastwest;top=0;left=0;right=0;bottom=1;" vertex="1" parent="1ScUjLGBHMxBpoSH8Gzn-36">
          <mxGeometry y="30" width="230" height="20" as="geometry" />
        </mxCell>
        <mxCell id="1ScUjLGBHMxBpoSH8Gzn-38" value="PK" style="shape=partialRectangle;connectable=0;fillColor=none;top=0;left=0;bottom=0;right=0;fontStyle=1;overflow=hidden;" vertex="1" parent="1ScUjLGBHMxBpoSH8Gzn-37">
          <mxGeometry width="30" height="20" as="geometry">
            <mxRectangle width="30" height="20" as="alternateBounds" />
          </mxGeometry>
        </mxCell>
        <mxCell id="1ScUjLGBHMxBpoSH8Gzn-39" value="id" style="shape=partialRectangle;connectable=0;fillColor=none;top=0;left=0;bottom=0;right=0;align=left;spacingLeft=6;fontStyle=5;overflow=hidden;" vertex="1" parent="1ScUjLGBHMxBpoSH8Gzn-37">
          <mxGeometry x="30" width="200" height="20" as="geometry">
            <mxRectangle width="200" height="20" as="alternateBounds" />
          </mxGeometry>
        </mxCell>
        <mxCell id="1ScUjLGBHMxBpoSH8Gzn-40" value="" style="shape=tableRow;horizontal=0;startSize=0;swimlaneHead=0;swimlaneBody=0;fillColor=none;collapsible=0;dropTarget=0;points=[[0,0.5],[1,0.5]];portConstraint=eastwest;top=0;left=0;right=0;bottom=0;" vertex="1" parent="1ScUjLGBHMxBpoSH8Gzn-36">
          <mxGeometry y="50" width="230" height="20" as="geometry" />
        </mxCell>
        <mxCell id="1ScUjLGBHMxBpoSH8Gzn-41" value="" style="shape=partialRectangle;connectable=0;fillColor=none;top=0;left=0;bottom=0;right=0;editable=1;overflow=hidden;" vertex="1" parent="1ScUjLGBHMxBpoSH8Gzn-40">
          <mxGeometry width="30" height="20" as="geometry">
            <mxRectangle width="30" height="20" as="alternateBounds" />
          </mxGeometry>
        </mxCell>
        <mxCell id="1ScUjLGBHMxBpoSH8Gzn-42" value="..." style="shape=partialRectangle;connectable=0;fillColor=none;top=0;left=0;bottom=0;right=0;align=left;spacingLeft=6;overflow=hidden;" vertex="1" parent="1ScUjLGBHMxBpoSH8Gzn-40">
          <mxGeometry x="30" width="200" height="20" as="geometry">
            <mxRectangle width="200" height="20" as="alternateBounds" />
          </mxGeometry>
        </mxCell>
        <mxCell id="1ScUjLGBHMxBpoSH8Gzn-43" value="service_provider_employee" style="shape=table;startSize=30;container=1;collapsible=1;childLayout=tableLayout;fixedRows=1;rowLines=0;fontStyle=1;align=center;resizeLast=1;" vertex="1" parent="1">
          <mxGeometry x="30" y="470" width="230" height="70" as="geometry">
            <mxRectangle x="90" y="-326.5" width="80" height="30" as="alternateBounds" />
          </mxGeometry>
        </mxCell>
        <mxCell id="1ScUjLGBHMxBpoSH8Gzn-44" value="" style="shape=tableRow;horizontal=0;startSize=0;swimlaneHead=0;swimlaneBody=0;fillColor=none;collapsible=0;dropTarget=0;points=[[0,0.5],[1,0.5]];portConstraint=eastwest;top=0;left=0;right=0;bottom=1;" vertex="1" parent="1ScUjLGBHMxBpoSH8Gzn-43">
          <mxGeometry y="30" width="230" height="20" as="geometry" />
        </mxCell>
        <mxCell id="1ScUjLGBHMxBpoSH8Gzn-45" value="PK" style="shape=partialRectangle;connectable=0;fillColor=none;top=0;left=0;bottom=0;right=0;fontStyle=1;overflow=hidden;" vertex="1" parent="1ScUjLGBHMxBpoSH8Gzn-44">
          <mxGeometry width="30" height="20" as="geometry">
            <mxRectangle width="30" height="20" as="alternateBounds" />
          </mxGeometry>
        </mxCell>
        <mxCell id="1ScUjLGBHMxBpoSH8Gzn-46" value="id" style="shape=partialRectangle;connectable=0;fillColor=none;top=0;left=0;bottom=0;right=0;align=left;spacingLeft=6;fontStyle=5;overflow=hidden;" vertex="1" parent="1ScUjLGBHMxBpoSH8Gzn-44">
          <mxGeometry x="30" width="200" height="20" as="geometry">
            <mxRectangle width="200" height="20" as="alternateBounds" />
          </mxGeometry>
        </mxCell>
        <mxCell id="1ScUjLGBHMxBpoSH8Gzn-47" value="" style="shape=tableRow;horizontal=0;startSize=0;swimlaneHead=0;swimlaneBody=0;fillColor=none;collapsible=0;dropTarget=0;points=[[0,0.5],[1,0.5]];portConstraint=eastwest;top=0;left=0;right=0;bottom=0;" vertex="1" parent="1ScUjLGBHMxBpoSH8Gzn-43">
          <mxGeometry y="50" width="230" height="20" as="geometry" />
        </mxCell>
        <mxCell id="1ScUjLGBHMxBpoSH8Gzn-48" value="" style="shape=partialRectangle;connectable=0;fillColor=none;top=0;left=0;bottom=0;right=0;editable=1;overflow=hidden;" vertex="1" parent="1ScUjLGBHMxBpoSH8Gzn-47">
          <mxGeometry width="30" height="20" as="geometry">
            <mxRectangle width="30" height="20" as="alternateBounds" />
          </mxGeometry>
        </mxCell>
        <mxCell id="1ScUjLGBHMxBpoSH8Gzn-49" value="..." style="shape=partialRectangle;connectable=0;fillColor=none;top=0;left=0;bottom=0;right=0;align=left;spacingLeft=6;overflow=hidden;" vertex="1" parent="1ScUjLGBHMxBpoSH8Gzn-47">
          <mxGeometry x="30" width="200" height="20" as="geometry">
            <mxRectangle width="200" height="20" as="alternateBounds" />
          </mxGeometry>
        </mxCell>
        <mxCell id="1ScUjLGBHMxBpoSH8Gzn-51" value="file_storage" style="shape=table;startSize=30;container=1;collapsible=1;childLayout=tableLayout;fixedRows=1;rowLines=0;fontStyle=1;align=center;resizeLast=1;" vertex="1" parent="1">
          <mxGeometry x="30" y="570" width="230" height="70" as="geometry">
            <mxRectangle x="90" y="-326.5" width="80" height="30" as="alternateBounds" />
          </mxGeometry>
        </mxCell>
        <mxCell id="1ScUjLGBHMxBpoSH8Gzn-52" value="" style="shape=tableRow;horizontal=0;startSize=0;swimlaneHead=0;swimlaneBody=0;fillColor=none;collapsible=0;dropTarget=0;points=[[0,0.5],[1,0.5]];portConstraint=eastwest;top=0;left=0;right=0;bottom=1;" vertex="1" parent="1ScUjLGBHMxBpoSH8Gzn-51">
          <mxGeometry y="30" width="230" height="20" as="geometry" />
        </mxCell>
        <mxCell id="1ScUjLGBHMxBpoSH8Gzn-53" value="PK" style="shape=partialRectangle;connectable=0;fillColor=none;top=0;left=0;bottom=0;right=0;fontStyle=1;overflow=hidden;" vertex="1" parent="1ScUjLGBHMxBpoSH8Gzn-52">
          <mxGeometry width="30" height="20" as="geometry">
            <mxRectangle width="30" height="20" as="alternateBounds" />
          </mxGeometry>
        </mxCell>
        <mxCell id="1ScUjLGBHMxBpoSH8Gzn-54" value="id" style="shape=partialRectangle;connectable=0;fillColor=none;top=0;left=0;bottom=0;right=0;align=left;spacingLeft=6;fontStyle=5;overflow=hidden;" vertex="1" parent="1ScUjLGBHMxBpoSH8Gzn-52">
          <mxGeometry x="30" width="200" height="20" as="geometry">
            <mxRectangle width="200" height="20" as="alternateBounds" />
          </mxGeometry>
        </mxCell>
        <mxCell id="1ScUjLGBHMxBpoSH8Gzn-55" value="" style="shape=tableRow;horizontal=0;startSize=0;swimlaneHead=0;swimlaneBody=0;fillColor=none;collapsible=0;dropTarget=0;points=[[0,0.5],[1,0.5]];portConstraint=eastwest;top=0;left=0;right=0;bottom=0;" vertex="1" parent="1ScUjLGBHMxBpoSH8Gzn-51">
          <mxGeometry y="50" width="230" height="20" as="geometry" />
        </mxCell>
        <mxCell id="1ScUjLGBHMxBpoSH8Gzn-56" value="" style="shape=partialRectangle;connectable=0;fillColor=none;top=0;left=0;bottom=0;right=0;editable=1;overflow=hidden;" vertex="1" parent="1ScUjLGBHMxBpoSH8Gzn-55">
          <mxGeometry width="30" height="20" as="geometry">
            <mxRectangle width="30" height="20" as="alternateBounds" />
          </mxGeometry>
        </mxCell>
        <mxCell id="1ScUjLGBHMxBpoSH8Gzn-57" value="..." style="shape=partialRectangle;connectable=0;fillColor=none;top=0;left=0;bottom=0;right=0;align=left;spacingLeft=6;overflow=hidden;" vertex="1" parent="1ScUjLGBHMxBpoSH8Gzn-55">
          <mxGeometry x="30" width="200" height="20" as="geometry">
            <mxRectangle width="200" height="20" as="alternateBounds" />
          </mxGeometry>
        </mxCell>
        <mxCell id="1ScUjLGBHMxBpoSH8Gzn-58" value="fast_track_major_entity_record&#xa;(major_entity_record)" style="shape=table;startSize=30;container=1;collapsible=1;childLayout=tableLayout;fixedRows=1;rowLines=0;fontStyle=1;align=center;resizeLast=1;" vertex="1" parent="1">
          <mxGeometry x="580" y="160" width="230" height="70" as="geometry">
            <mxRectangle x="90" y="-326.5" width="80" height="30" as="alternateBounds" />
          </mxGeometry>
        </mxCell>
        <mxCell id="1ScUjLGBHMxBpoSH8Gzn-59" value="" style="shape=tableRow;horizontal=0;startSize=0;swimlaneHead=0;swimlaneBody=0;fillColor=none;collapsible=0;dropTarget=0;points=[[0,0.5],[1,0.5]];portConstraint=eastwest;top=0;left=0;right=0;bottom=1;" vertex="1" parent="1ScUjLGBHMxBpoSH8Gzn-58">
          <mxGeometry y="30" width="230" height="20" as="geometry" />
        </mxCell>
        <mxCell id="1ScUjLGBHMxBpoSH8Gzn-60" value="PK" style="shape=partialRectangle;connectable=0;fillColor=none;top=0;left=0;bottom=0;right=0;fontStyle=1;overflow=hidden;" vertex="1" parent="1ScUjLGBHMxBpoSH8Gzn-59">
          <mxGeometry width="30" height="20" as="geometry">
            <mxRectangle width="30" height="20" as="alternateBounds" />
          </mxGeometry>
        </mxCell>
        <mxCell id="1ScUjLGBHMxBpoSH8Gzn-61" value="id" style="shape=partialRectangle;connectable=0;fillColor=none;top=0;left=0;bottom=0;right=0;align=left;spacingLeft=6;fontStyle=5;overflow=hidden;" vertex="1" parent="1ScUjLGBHMxBpoSH8Gzn-59">
          <mxGeometry x="30" width="200" height="20" as="geometry">
            <mxRectangle width="200" height="20" as="alternateBounds" />
          </mxGeometry>
        </mxCell>
        <mxCell id="1ScUjLGBHMxBpoSH8Gzn-62" value="" style="shape=tableRow;horizontal=0;startSize=0;swimlaneHead=0;swimlaneBody=0;fillColor=none;collapsible=0;dropTarget=0;points=[[0,0.5],[1,0.5]];portConstraint=eastwest;top=0;left=0;right=0;bottom=0;" vertex="1" parent="1ScUjLGBHMxBpoSH8Gzn-58">
          <mxGeometry y="50" width="230" height="20" as="geometry" />
        </mxCell>
        <mxCell id="1ScUjLGBHMxBpoSH8Gzn-63" value="" style="shape=partialRectangle;connectable=0;fillColor=none;top=0;left=0;bottom=0;right=0;editable=1;overflow=hidden;" vertex="1" parent="1ScUjLGBHMxBpoSH8Gzn-62">
          <mxGeometry width="30" height="20" as="geometry">
            <mxRectangle width="30" height="20" as="alternateBounds" />
          </mxGeometry>
        </mxCell>
        <mxCell id="1ScUjLGBHMxBpoSH8Gzn-64" value="..." style="shape=partialRectangle;connectable=0;fillColor=none;top=0;left=0;bottom=0;right=0;align=left;spacingLeft=6;overflow=hidden;" vertex="1" parent="1ScUjLGBHMxBpoSH8Gzn-62">
          <mxGeometry x="30" width="200" height="20" as="geometry">
            <mxRectangle width="200" height="20" as="alternateBounds" />
          </mxGeometry>
        </mxCell>
        <mxCell id="1ScUjLGBHMxBpoSH8Gzn-65" value="fast_track_major_entity_record&#xa;(major_entity)" style="shape=table;startSize=30;container=1;collapsible=1;childLayout=tableLayout;fixedRows=1;rowLines=0;fontStyle=1;align=center;resizeLast=1;" vertex="1" parent="1">
          <mxGeometry x="580" y="280" width="230" height="70" as="geometry">
            <mxRectangle x="90" y="-326.5" width="80" height="30" as="alternateBounds" />
          </mxGeometry>
        </mxCell>
        <mxCell id="1ScUjLGBHMxBpoSH8Gzn-66" value="" style="shape=tableRow;horizontal=0;startSize=0;swimlaneHead=0;swimlaneBody=0;fillColor=none;collapsible=0;dropTarget=0;points=[[0,0.5],[1,0.5]];portConstraint=eastwest;top=0;left=0;right=0;bottom=1;" vertex="1" parent="1ScUjLGBHMxBpoSH8Gzn-65">
          <mxGeometry y="30" width="230" height="20" as="geometry" />
        </mxCell>
        <mxCell id="1ScUjLGBHMxBpoSH8Gzn-67" value="PK" style="shape=partialRectangle;connectable=0;fillColor=none;top=0;left=0;bottom=0;right=0;fontStyle=1;overflow=hidden;" vertex="1" parent="1ScUjLGBHMxBpoSH8Gzn-66">
          <mxGeometry width="30" height="20" as="geometry">
            <mxRectangle width="30" height="20" as="alternateBounds" />
          </mxGeometry>
        </mxCell>
        <mxCell id="1ScUjLGBHMxBpoSH8Gzn-68" value="id" style="shape=partialRectangle;connectable=0;fillColor=none;top=0;left=0;bottom=0;right=0;align=left;spacingLeft=6;fontStyle=5;overflow=hidden;" vertex="1" parent="1ScUjLGBHMxBpoSH8Gzn-66">
          <mxGeometry x="30" width="200" height="20" as="geometry">
            <mxRectangle width="200" height="20" as="alternateBounds" />
          </mxGeometry>
        </mxCell>
        <mxCell id="1ScUjLGBHMxBpoSH8Gzn-69" value="" style="shape=tableRow;horizontal=0;startSize=0;swimlaneHead=0;swimlaneBody=0;fillColor=none;collapsible=0;dropTarget=0;points=[[0,0.5],[1,0.5]];portConstraint=eastwest;top=0;left=0;right=0;bottom=0;" vertex="1" parent="1ScUjLGBHMxBpoSH8Gzn-65">
          <mxGeometry y="50" width="230" height="20" as="geometry" />
        </mxCell>
        <mxCell id="1ScUjLGBHMxBpoSH8Gzn-70" value="" style="shape=partialRectangle;connectable=0;fillColor=none;top=0;left=0;bottom=0;right=0;editable=1;overflow=hidden;" vertex="1" parent="1ScUjLGBHMxBpoSH8Gzn-69">
          <mxGeometry width="30" height="20" as="geometry">
            <mxRectangle width="30" height="20" as="alternateBounds" />
          </mxGeometry>
        </mxCell>
        <mxCell id="1ScUjLGBHMxBpoSH8Gzn-71" value="..." style="shape=partialRectangle;connectable=0;fillColor=none;top=0;left=0;bottom=0;right=0;align=left;spacingLeft=6;overflow=hidden;" vertex="1" parent="1ScUjLGBHMxBpoSH8Gzn-69">
          <mxGeometry x="30" width="200" height="20" as="geometry">
            <mxRectangle width="200" height="20" as="alternateBounds" />
          </mxGeometry>
        </mxCell>
        <mxCell id="1ScUjLGBHMxBpoSH8Gzn-72" value="fast_track_immediate_record" style="shape=table;startSize=30;container=1;collapsible=1;childLayout=tableLayout;fixedRows=1;rowLines=0;fontStyle=1;align=center;resizeLast=1;" vertex="1" parent="1">
          <mxGeometry x="580" y="370" width="230" height="70" as="geometry">
            <mxRectangle x="90" y="-326.5" width="80" height="30" as="alternateBounds" />
          </mxGeometry>
        </mxCell>
        <mxCell id="1ScUjLGBHMxBpoSH8Gzn-73" value="" style="shape=tableRow;horizontal=0;startSize=0;swimlaneHead=0;swimlaneBody=0;fillColor=none;collapsible=0;dropTarget=0;points=[[0,0.5],[1,0.5]];portConstraint=eastwest;top=0;left=0;right=0;bottom=1;" vertex="1" parent="1ScUjLGBHMxBpoSH8Gzn-72">
          <mxGeometry y="30" width="230" height="20" as="geometry" />
        </mxCell>
        <mxCell id="1ScUjLGBHMxBpoSH8Gzn-74" value="PK" style="shape=partialRectangle;connectable=0;fillColor=none;top=0;left=0;bottom=0;right=0;fontStyle=1;overflow=hidden;" vertex="1" parent="1ScUjLGBHMxBpoSH8Gzn-73">
          <mxGeometry width="30" height="20" as="geometry">
            <mxRectangle width="30" height="20" as="alternateBounds" />
          </mxGeometry>
        </mxCell>
        <mxCell id="1ScUjLGBHMxBpoSH8Gzn-75" value="id" style="shape=partialRectangle;connectable=0;fillColor=none;top=0;left=0;bottom=0;right=0;align=left;spacingLeft=6;fontStyle=5;overflow=hidden;" vertex="1" parent="1ScUjLGBHMxBpoSH8Gzn-73">
          <mxGeometry x="30" width="200" height="20" as="geometry">
            <mxRectangle width="200" height="20" as="alternateBounds" />
          </mxGeometry>
        </mxCell>
        <mxCell id="1ScUjLGBHMxBpoSH8Gzn-76" value="" style="shape=tableRow;horizontal=0;startSize=0;swimlaneHead=0;swimlaneBody=0;fillColor=none;collapsible=0;dropTarget=0;points=[[0,0.5],[1,0.5]];portConstraint=eastwest;top=0;left=0;right=0;bottom=0;" vertex="1" parent="1ScUjLGBHMxBpoSH8Gzn-72">
          <mxGeometry y="50" width="230" height="20" as="geometry" />
        </mxCell>
        <mxCell id="1ScUjLGBHMxBpoSH8Gzn-77" value="" style="shape=partialRectangle;connectable=0;fillColor=none;top=0;left=0;bottom=0;right=0;editable=1;overflow=hidden;" vertex="1" parent="1ScUjLGBHMxBpoSH8Gzn-76">
          <mxGeometry width="30" height="20" as="geometry">
            <mxRectangle width="30" height="20" as="alternateBounds" />
          </mxGeometry>
        </mxCell>
        <mxCell id="1ScUjLGBHMxBpoSH8Gzn-78" value="..." style="shape=partialRectangle;connectable=0;fillColor=none;top=0;left=0;bottom=0;right=0;align=left;spacingLeft=6;overflow=hidden;" vertex="1" parent="1ScUjLGBHMxBpoSH8Gzn-76">
          <mxGeometry x="30" width="200" height="20" as="geometry">
            <mxRectangle width="200" height="20" as="alternateBounds" />
          </mxGeometry>
        </mxCell>
        <mxCell id="1ScUjLGBHMxBpoSH8Gzn-79" value="verification_request_education" style="shape=table;startSize=30;container=1;collapsible=1;childLayout=tableLayout;fixedRows=1;rowLines=0;fontStyle=1;align=center;resizeLast=1;" vertex="1" parent="1">
          <mxGeometry x="580" y="460" width="230" height="70" as="geometry">
            <mxRectangle x="90" y="-326.5" width="80" height="30" as="alternateBounds" />
          </mxGeometry>
        </mxCell>
        <mxCell id="1ScUjLGBHMxBpoSH8Gzn-80" value="" style="shape=tableRow;horizontal=0;startSize=0;swimlaneHead=0;swimlaneBody=0;fillColor=none;collapsible=0;dropTarget=0;points=[[0,0.5],[1,0.5]];portConstraint=eastwest;top=0;left=0;right=0;bottom=1;" vertex="1" parent="1ScUjLGBHMxBpoSH8Gzn-79">
          <mxGeometry y="30" width="230" height="20" as="geometry" />
        </mxCell>
        <mxCell id="1ScUjLGBHMxBpoSH8Gzn-81" value="PK" style="shape=partialRectangle;connectable=0;fillColor=none;top=0;left=0;bottom=0;right=0;fontStyle=1;overflow=hidden;" vertex="1" parent="1ScUjLGBHMxBpoSH8Gzn-80">
          <mxGeometry width="30" height="20" as="geometry">
            <mxRectangle width="30" height="20" as="alternateBounds" />
          </mxGeometry>
        </mxCell>
        <mxCell id="1ScUjLGBHMxBpoSH8Gzn-82" value="id" style="shape=partialRectangle;connectable=0;fillColor=none;top=0;left=0;bottom=0;right=0;align=left;spacingLeft=6;fontStyle=5;overflow=hidden;" vertex="1" parent="1ScUjLGBHMxBpoSH8Gzn-80">
          <mxGeometry x="30" width="200" height="20" as="geometry">
            <mxRectangle width="200" height="20" as="alternateBounds" />
          </mxGeometry>
        </mxCell>
        <mxCell id="1ScUjLGBHMxBpoSH8Gzn-83" value="" style="shape=tableRow;horizontal=0;startSize=0;swimlaneHead=0;swimlaneBody=0;fillColor=none;collapsible=0;dropTarget=0;points=[[0,0.5],[1,0.5]];portConstraint=eastwest;top=0;left=0;right=0;bottom=0;" vertex="1" parent="1ScUjLGBHMxBpoSH8Gzn-79">
          <mxGeometry y="50" width="230" height="20" as="geometry" />
        </mxCell>
        <mxCell id="1ScUjLGBHMxBpoSH8Gzn-84" value="" style="shape=partialRectangle;connectable=0;fillColor=none;top=0;left=0;bottom=0;right=0;editable=1;overflow=hidden;" vertex="1" parent="1ScUjLGBHMxBpoSH8Gzn-83">
          <mxGeometry width="30" height="20" as="geometry">
            <mxRectangle width="30" height="20" as="alternateBounds" />
          </mxGeometry>
        </mxCell>
        <mxCell id="1ScUjLGBHMxBpoSH8Gzn-85" value="..." style="shape=partialRectangle;connectable=0;fillColor=none;top=0;left=0;bottom=0;right=0;align=left;spacingLeft=6;overflow=hidden;" vertex="1" parent="1ScUjLGBHMxBpoSH8Gzn-83">
          <mxGeometry x="30" width="200" height="20" as="geometry">
            <mxRectangle width="200" height="20" as="alternateBounds" />
          </mxGeometry>
        </mxCell>
        <mxCell id="1ScUjLGBHMxBpoSH8Gzn-87" value="verification_request_eligibility_score" style="shape=table;startSize=30;container=1;collapsible=1;childLayout=tableLayout;fixedRows=1;rowLines=0;fontStyle=1;align=center;resizeLast=1;" vertex="1" parent="1">
          <mxGeometry x="580" y="560" width="230" height="70" as="geometry">
            <mxRectangle x="90" y="-326.5" width="80" height="30" as="alternateBounds" />
          </mxGeometry>
        </mxCell>
        <mxCell id="1ScUjLGBHMxBpoSH8Gzn-88" value="" style="shape=tableRow;horizontal=0;startSize=0;swimlaneHead=0;swimlaneBody=0;fillColor=none;collapsible=0;dropTarget=0;points=[[0,0.5],[1,0.5]];portConstraint=eastwest;top=0;left=0;right=0;bottom=1;" vertex="1" parent="1ScUjLGBHMxBpoSH8Gzn-87">
          <mxGeometry y="30" width="230" height="20" as="geometry" />
        </mxCell>
        <mxCell id="1ScUjLGBHMxBpoSH8Gzn-89" value="PK" style="shape=partialRectangle;connectable=0;fillColor=none;top=0;left=0;bottom=0;right=0;fontStyle=1;overflow=hidden;" vertex="1" parent="1ScUjLGBHMxBpoSH8Gzn-88">
          <mxGeometry width="30" height="20" as="geometry">
            <mxRectangle width="30" height="20" as="alternateBounds" />
          </mxGeometry>
        </mxCell>
        <mxCell id="1ScUjLGBHMxBpoSH8Gzn-90" value="id" style="shape=partialRectangle;connectable=0;fillColor=none;top=0;left=0;bottom=0;right=0;align=left;spacingLeft=6;fontStyle=5;overflow=hidden;" vertex="1" parent="1ScUjLGBHMxBpoSH8Gzn-88">
          <mxGeometry x="30" width="200" height="20" as="geometry">
            <mxRectangle width="200" height="20" as="alternateBounds" />
          </mxGeometry>
        </mxCell>
        <mxCell id="1ScUjLGBHMxBpoSH8Gzn-91" value="" style="shape=tableRow;horizontal=0;startSize=0;swimlaneHead=0;swimlaneBody=0;fillColor=none;collapsible=0;dropTarget=0;points=[[0,0.5],[1,0.5]];portConstraint=eastwest;top=0;left=0;right=0;bottom=0;" vertex="1" parent="1ScUjLGBHMxBpoSH8Gzn-87">
          <mxGeometry y="50" width="230" height="20" as="geometry" />
        </mxCell>
        <mxCell id="1ScUjLGBHMxBpoSH8Gzn-92" value="" style="shape=partialRectangle;connectable=0;fillColor=none;top=0;left=0;bottom=0;right=0;editable=1;overflow=hidden;" vertex="1" parent="1ScUjLGBHMxBpoSH8Gzn-91">
          <mxGeometry width="30" height="20" as="geometry">
            <mxRectangle width="30" height="20" as="alternateBounds" />
          </mxGeometry>
        </mxCell>
        <mxCell id="1ScUjLGBHMxBpoSH8Gzn-93" value="..." style="shape=partialRectangle;connectable=0;fillColor=none;top=0;left=0;bottom=0;right=0;align=left;spacingLeft=6;overflow=hidden;" vertex="1" parent="1ScUjLGBHMxBpoSH8Gzn-91">
          <mxGeometry x="30" width="200" height="20" as="geometry">
            <mxRectangle width="200" height="20" as="alternateBounds" />
          </mxGeometry>
        </mxCell>
        <mxCell id="1ScUjLGBHMxBpoSH8Gzn-94" value="verification_request_candidate_&#xa;professional_certificate" style="shape=table;startSize=30;container=1;collapsible=1;childLayout=tableLayout;fixedRows=1;rowLines=0;fontStyle=1;align=center;resizeLast=1;" vertex="1" parent="1">
          <mxGeometry x="580" y="650" width="230" height="70" as="geometry">
            <mxRectangle x="90" y="-326.5" width="80" height="30" as="alternateBounds" />
          </mxGeometry>
        </mxCell>
        <mxCell id="1ScUjLGBHMxBpoSH8Gzn-95" value="" style="shape=tableRow;horizontal=0;startSize=0;swimlaneHead=0;swimlaneBody=0;fillColor=none;collapsible=0;dropTarget=0;points=[[0,0.5],[1,0.5]];portConstraint=eastwest;top=0;left=0;right=0;bottom=1;" vertex="1" parent="1ScUjLGBHMxBpoSH8Gzn-94">
          <mxGeometry y="30" width="230" height="20" as="geometry" />
        </mxCell>
        <mxCell id="1ScUjLGBHMxBpoSH8Gzn-96" value="PK" style="shape=partialRectangle;connectable=0;fillColor=none;top=0;left=0;bottom=0;right=0;fontStyle=1;overflow=hidden;" vertex="1" parent="1ScUjLGBHMxBpoSH8Gzn-95">
          <mxGeometry width="30" height="20" as="geometry">
            <mxRectangle width="30" height="20" as="alternateBounds" />
          </mxGeometry>
        </mxCell>
        <mxCell id="1ScUjLGBHMxBpoSH8Gzn-97" value="id" style="shape=partialRectangle;connectable=0;fillColor=none;top=0;left=0;bottom=0;right=0;align=left;spacingLeft=6;fontStyle=5;overflow=hidden;" vertex="1" parent="1ScUjLGBHMxBpoSH8Gzn-95">
          <mxGeometry x="30" width="200" height="20" as="geometry">
            <mxRectangle width="200" height="20" as="alternateBounds" />
          </mxGeometry>
        </mxCell>
        <mxCell id="1ScUjLGBHMxBpoSH8Gzn-98" value="" style="shape=tableRow;horizontal=0;startSize=0;swimlaneHead=0;swimlaneBody=0;fillColor=none;collapsible=0;dropTarget=0;points=[[0,0.5],[1,0.5]];portConstraint=eastwest;top=0;left=0;right=0;bottom=0;" vertex="1" parent="1ScUjLGBHMxBpoSH8Gzn-94">
          <mxGeometry y="50" width="230" height="20" as="geometry" />
        </mxCell>
        <mxCell id="1ScUjLGBHMxBpoSH8Gzn-99" value="" style="shape=partialRectangle;connectable=0;fillColor=none;top=0;left=0;bottom=0;right=0;editable=1;overflow=hidden;" vertex="1" parent="1ScUjLGBHMxBpoSH8Gzn-98">
          <mxGeometry width="30" height="20" as="geometry">
            <mxRectangle width="30" height="20" as="alternateBounds" />
          </mxGeometry>
        </mxCell>
        <mxCell id="1ScUjLGBHMxBpoSH8Gzn-100" value="..." style="shape=partialRectangle;connectable=0;fillColor=none;top=0;left=0;bottom=0;right=0;align=left;spacingLeft=6;overflow=hidden;" vertex="1" parent="1ScUjLGBHMxBpoSH8Gzn-98">
          <mxGeometry x="30" width="200" height="20" as="geometry">
            <mxRectangle width="200" height="20" as="alternateBounds" />
          </mxGeometry>
        </mxCell>
        <mxCell id="1ScUjLGBHMxBpoSH8Gzn-101" value="verification_request_candidate_&#xa;professional_certificate&#xa;(verified)" style="shape=table;startSize=30;container=1;collapsible=1;childLayout=tableLayout;fixedRows=1;rowLines=0;fontStyle=1;align=center;resizeLast=1;" vertex="1" parent="1">
          <mxGeometry x="580" y="750" width="230" height="90" as="geometry">
            <mxRectangle x="550" y="770" width="80" height="30" as="alternateBounds" />
          </mxGeometry>
        </mxCell>
        <mxCell id="1ScUjLGBHMxBpoSH8Gzn-102" value="" style="shape=tableRow;horizontal=0;startSize=0;swimlaneHead=0;swimlaneBody=0;fillColor=none;collapsible=0;dropTarget=0;points=[[0,0.5],[1,0.5]];portConstraint=eastwest;top=0;left=0;right=0;bottom=1;" vertex="1" parent="1ScUjLGBHMxBpoSH8Gzn-101">
          <mxGeometry y="30" width="230" height="20" as="geometry" />
        </mxCell>
        <mxCell id="1ScUjLGBHMxBpoSH8Gzn-103" value="PK" style="shape=partialRectangle;connectable=0;fillColor=none;top=0;left=0;bottom=0;right=0;fontStyle=1;overflow=hidden;" vertex="1" parent="1ScUjLGBHMxBpoSH8Gzn-102">
          <mxGeometry width="30" height="20" as="geometry">
            <mxRectangle width="30" height="20" as="alternateBounds" />
          </mxGeometry>
        </mxCell>
        <mxCell id="1ScUjLGBHMxBpoSH8Gzn-104" value="id" style="shape=partialRectangle;connectable=0;fillColor=none;top=0;left=0;bottom=0;right=0;align=left;spacingLeft=6;fontStyle=5;overflow=hidden;" vertex="1" parent="1ScUjLGBHMxBpoSH8Gzn-102">
          <mxGeometry x="30" width="200" height="20" as="geometry">
            <mxRectangle width="200" height="20" as="alternateBounds" />
          </mxGeometry>
        </mxCell>
        <mxCell id="1ScUjLGBHMxBpoSH8Gzn-105" value="" style="shape=tableRow;horizontal=0;startSize=0;swimlaneHead=0;swimlaneBody=0;fillColor=none;collapsible=0;dropTarget=0;points=[[0,0.5],[1,0.5]];portConstraint=eastwest;top=0;left=0;right=0;bottom=0;" vertex="1" parent="1ScUjLGBHMxBpoSH8Gzn-101">
          <mxGeometry y="50" width="230" height="20" as="geometry" />
        </mxCell>
        <mxCell id="1ScUjLGBHMxBpoSH8Gzn-106" value="" style="shape=partialRectangle;connectable=0;fillColor=none;top=0;left=0;bottom=0;right=0;editable=1;overflow=hidden;" vertex="1" parent="1ScUjLGBHMxBpoSH8Gzn-105">
          <mxGeometry width="30" height="20" as="geometry">
            <mxRectangle width="30" height="20" as="alternateBounds" />
          </mxGeometry>
        </mxCell>
        <mxCell id="1ScUjLGBHMxBpoSH8Gzn-107" value="..." style="shape=partialRectangle;connectable=0;fillColor=none;top=0;left=0;bottom=0;right=0;align=left;spacingLeft=6;overflow=hidden;" vertex="1" parent="1ScUjLGBHMxBpoSH8Gzn-105">
          <mxGeometry x="30" width="200" height="20" as="geometry">
            <mxRectangle width="200" height="20" as="alternateBounds" />
          </mxGeometry>
        </mxCell>
      </root>
    </mxGraphModel>
  </diagram>
</mxfile>
